<svg viewBox="-5.163265306122469 129 516.3265306122449 386.9999999999999" xmlns="http://www.w3.org/2000/svg" overflow="visible" xmlns:xlink="http://www.w3.org/1999/xlink" width="516.3265306122449px" height="386.9999999999999px"><g id="Master/Stickers/UI Design" stroke="none" stroke-width="1" fill="none" fill-rule="evenodd"><g id="Group-123" transform="translate(0.000000, 132.000000)"><path d="M298.789361,383 L166.210639,383 C157.25721,383 150,375.761738 150,366.83263 L150,33.1683145 C150,24.2382616 157.25721,17 166.210639,17 L189.739067,17 C195.526283,17 200.218338,21.6798047 200.218338,27.452854 C200.218338,33.2259034 204.910393,37.904764 210.698555,37.904764 L254.301445,37.904764 C260.08866,37.904764 264.780716,33.2259034 264.780716,27.452854 C264.780716,21.6798047 269.472771,17 275.260933,17 L298.789361,17 C307.741844,17 315,24.2382616 315,33.1683145 L315,366.83263 C315,375.761738 307.741844,383 298.789361,383" id="Fill-1" fill="#ffffff"/><path d="M166.542758,16.8302313 C157.878176,16.8302313 150.826902,23.899948 150.826902,32.5914021 L150.826902,366.409542 C150.826902,375.099107 157.878176,382.169769 166.542758,382.169769 L298.4563,382.169769 C307.121824,382.169769 314.172156,375.099107 314.172156,366.409542 L314.172156,32.5914021 C314.172156,23.899948 307.121824,16.8302313 298.4563,16.8302313 L275.04592,16.8302313 C269.525075,16.8302313 265.032678,21.3355818 265.032678,26.872346 C265.032678,32.8672013 260.16921,37.7446919 254.191591,37.7446919 L210.807467,37.7446919 C204.829848,37.7446919 199.966381,32.8672013 199.966381,26.872346 C199.966381,21.3355818 195.474925,16.8302313 189.953138,16.8302313 L166.542758,16.8302313 Z M298.4563,383 L166.542758,383 C157.420461,383 150,375.558143 150,366.409542 L150,32.5914021 C150,23.4428013 157.420461,16 166.542758,16 L189.953138,16 C195.930758,16 200.794225,20.8774906 200.794225,26.872346 C200.794225,32.4100546 205.286622,36.9144606 210.807467,36.9144606 L254.191591,36.9144606 C259.713378,36.9144606 264.204833,32.4100546 264.204833,26.872346 C264.204833,20.8774906 269.068301,16 275.04592,16 L298.4563,16 C307.578598,16 315,23.4428013 315,32.5914021 L315,366.409542 C315,375.558143 307.578598,383 298.4563,383 L298.4563,383 Z" id="Fill-3" fill="#000000"/><path d="M424.730318,164 L365.268731,164 C361.254627,164 358,160.775623 358,156.799991 L358,8.20095066 C358,4.22437652 361.254627,1 365.268731,1 L375.822507,1 C378.417464,1 380.521946,3.0843123 380.521946,5.65628213 C380.521946,8.22636911 382.626427,10.3106814 385.222335,10.3106814 L404.777665,10.3106814 C407.372622,10.3106814 409.477104,8.22636911 409.477104,5.65628213 C409.477104,3.0843123 411.581585,1 414.177493,1 L424.730318,1 C428.745373,1 432,4.22437652 432,8.20095066 L432,156.799991 C432,160.775623 428.745373,164 424.730318,164" id="Fill-5" fill="#ffffff"/><path d="M365.645788,0.941760173 C361.947242,0.941760173 358.938479,3.96198505 358.938479,7.67346189 L358.938479,156.325596 C358.938479,160.038015 361.947242,163.05824 365.645788,163.05824 L424.353274,163.05824 C428.051819,163.05824 431.061521,160.038015 431.061521,156.325596 L431.061521,7.67346189 C431.061521,3.96198505 428.051819,0.941760173 424.353274,0.941760173 L413.934281,0.941760173 C411.634069,0.941760173 409.762742,2.81962996 409.762742,5.12788414 C409.762742,7.95504818 407.470038,10.2557683 404.652725,10.2557683 L385.345398,10.2557683 C382.528085,10.2557683 380.236319,7.95504818 380.236319,5.12788414 C380.236319,2.81962996 378.364992,0.941760173 376.065719,0.941760173 L365.645788,0.941760173 Z M424.353274,164 L365.645788,164 C361.43014,164 358,160.556925 358,156.325596 L358,7.67346189 C358,3.44213343 361.43014,0 365.645788,0 L376.065719,0 C378.882094,0 381.174798,2.29977834 381.174798,5.12788414 C381.174798,7.43613832 383.046125,9.31400811 385.345398,9.31400811 L404.652725,9.31400811 C406.952937,9.31400811 408.824263,7.43613832 408.824263,5.12788414 C408.824263,2.29977834 411.116029,0 413.934281,0 L424.353274,0 C428.56986,0 432,3.44213343 432,7.67346189 L432,156.325596 C432,160.556925 428.56986,164 424.353274,164 L424.353274,164 Z" id="Fill-7" fill="#000000"/><path d="M89.3724216,289 L10.6275784,289 C5.31101043,289 1,284.668279 1,279.32617 L1,79.6738295 C1,74.3307755 5.31101043,70 10.6275784,70 L24.6028527,70 C28.0399969,70 30.8271503,72.8005429 30.8271503,76.2541993 C30.8271503,79.7078557 33.6143037,82.5083986 37.0514479,82.5083986 L62.9485521,82.5083986 C66.386637,82.5083986 69.1728497,79.7078557 69.1728497,76.2541993 C69.1728497,72.8005429 71.9600031,70 75.398088,70 L89.3724216,70 C94.6899302,70 99,74.3307755 99,79.6738295 L99,279.32617 C99,284.668279 94.6899302,289 89.3724216,289" id="Fill-9" fill="#ffffff"/><path d="M10.1039617,70.945407 C5.05151023,70.945407 0.941216737,75.0739996 0.941216737,80.1489446 L0.941216737,279.851055 C0.941216737,284.926 5.05151023,289.054593 10.1039617,289.054593 L88.8960383,289.054593 C93.9484898,289.054593 98.0587833,284.926 98.0587833,279.851055 L98.0587833,80.1489446 C98.0587833,75.0739996 93.9484898,70.945407 88.8960383,70.945407 L74.9123813,70.945407 C71.7376572,70.945407 69.1549585,73.539604 69.1549585,76.7284619 C69.1549585,80.4391845 66.1505947,83.4569238 62.456319,83.4569238 L36.543681,83.4569238 C32.8494053,83.4569238 29.8450415,80.4391845 29.8450415,76.7284619 C29.8450415,73.539604 27.2614016,70.945407 24.0866775,70.945407 L10.1039617,70.945407 Z M88.8960383,290 L10.1039617,290 C4.53195859,290 0,285.447865 0,279.851055 L0,80.1489446 C0,74.5521349 4.53195859,70 10.1039617,70 L24.0866775,70 C27.7809532,70 30.7862582,73.0177393 30.7862582,76.7284619 C30.7862582,79.9173199 33.368957,82.5115168 36.543681,82.5115168 L62.456319,82.5115168 C65.631043,82.5115168 68.2137418,79.9173199 68.2137418,76.7284619 C68.2137418,73.0177393 71.2190468,70 74.9123813,70 L88.8960383,70 C94.4680414,70 99,74.5521349 99,80.1489446 L99,279.851055 C99,285.447865 94.4680414,290 88.8960383,290 L88.8960383,290 Z" id="Fill-11" fill="#000000"/><path d="M328.397556,184 L318,184 L318,183.423739 L328.397556,183.423739 C331.528575,183.423739 334.076667,180.855479 334.076667,177.699677 L334.076667,88.3003235 C334.076667,84.826779 336.881246,82 340.327512,82 L358,82 L358,82.5762606 L340.327512,82.5762606 C337.196493,82.5762606 334.648402,85.1445213 334.648402,88.3003235 L334.648402,177.699677 C334.648402,181.173221 331.843822,184 328.397556,184" id="Fill-13" fill="#98b1e3"/><path d="M147,269 L128.606139,269 C124.272131,269 120.747277,265.462395 120.747277,261.11271 L120.747277,186.88729 C120.747277,182.901576 117.516318,179.658929 113.544969,179.658929 L99,179.658929 L99,179 L113.544969,179 C117.878976,179 121.403831,182.537605 121.403831,186.88729 L121.403831,261.11271 C121.403831,265.098424 124.63479,268.341071 128.606139,268.341071 L147,268.341071 L147,269 Z" id="Fill-15" fill="#98b1e3"/><path d="M155,269 C155,271.208732 153.208732,273 151,273 C148.791268,273 147,271.208732 147,269 C147,266.790334 148.791268,265 151,265 C153.208732,265 155,266.790334 155,269" id="Fill-17" fill="#98b1e3"/><path d="M319,183 C319,185.208732 317.208732,187 315,187 C312.790334,187 311,185.208732 311,183 C311,180.790334 312.790334,179 315,179 C317.208732,179 319,180.790334 319,183" id="Fill-19" fill="#98b1e3"/><path d="M361,82.0004516 C361,83.6569321 359.657134,85 358.000903,85 C356.343769,85 355,83.6569321 355,82.0004516 C355,80.3430679 356.343769,79 358.000903,79 C359.657134,79 361,80.3430679 361,82.0004516" id="Fill-21" fill="#98b1e3"/><path d="M394,164.000452 C394,165.656932 392.657835,167 391.000452,167 C389.343971,167 388,165.656932 388,164.000452 C388,162.343068 389.343971,161 391.000452,161 C392.657835,161 394,162.343068 394,164.000452" id="Fill-23" fill="#98b1e3"/><path d="M102,179.499536 C102,181.432905 100.433113,183 98.5,183 C96.5678146,183 95,181.432905 95,179.499536 C95,177.566168 96.5678146,176 98.5,176 C100.433113,176 102,177.566168 102,179.499536" id="Fill-25" fill="#98b1e3"/><path d="M32,127.5 C32,134.403682 26.4038953,140 19.5004764,140 C12.5970576,140 7,134.403682 7,127.5 C7,120.596318 12.5970576,115 19.5004764,115 C26.4038953,115 32,120.596318 32,127.5" id="Fill-27" fill="#ebf0f9"/><path d="M87.9744164,123 L40.0255836,123 C38.9056876,123 38,122.104824 38,121 C38,119.895176 38.9056876,119 40.0255836,119 L87.9744164,119 C89.0933728,119 90,119.895176 90,121 C90,122.104824 89.0933728,123 87.9744164,123" id="Fill-29" fill="#ebf0f9"/><path d="M87.9744164,134 L40.0255836,134 C38.9056876,134 38,133.104104 38,131.999536 C38,130.894969 38.9056876,130 40.0255836,130 L87.9744164,130 C89.0933728,130 90,130.894969 90,131.999536 C90,133.104104 89.0933728,134 87.9744164,134" id="Fill-31" fill="#ebf0f9"/><path d="M32,167.5 C32,174.403682 26.4038953,180 19.5004764,180 C12.5970576,180 7,174.403682 7,167.5 C7,160.596318 12.5970576,155 19.5004764,155 C26.4038953,155 32,160.596318 32,167.5" id="Fill-33" fill="#ebf0f9"/><path d="M87.9744164,163 L40.0255836,163 C38.9056876,163 38,162.104824 38,161 C38,159.895176 38.9056876,159 40.0255836,159 L87.9744164,159 C89.0933728,159 90,159.895176 90,161 C90,162.104824 89.0933728,163 87.9744164,163" id="Fill-35" fill="#ebf0f9"/><path d="M87.9744164,174 L40.0255836,174 C38.9056876,174 38,173.104104 38,171.999536 C38,170.894969 38.9056876,170 40.0255836,170 L87.9744164,170 C89.0933728,170 90,170.894969 90,171.999536 C90,173.104104 89.0933728,174 87.9744164,174" id="Fill-37" fill="#ebf0f9"/><path d="M418.610031,145 L371.390916,145 C369.518433,145 368,143.489618 368,141.628007 L368,28.3729343 C368,26.5094399 369.518433,25 371.390916,25 L418.610031,25 C420.482513,25 422,26.5094399 422,28.3729343 L422,141.628007 C422,143.489618 420.482513,145 418.610031,145" id="Fill-39" fill="#ebf0f9"/><path d="M32,207.5 C32,214.403682 26.4038953,220 19.5004764,220 C12.5970576,220 7,214.403682 7,207.5 C7,200.596318 12.5970576,195 19.5004764,195 C26.4038953,195 32,200.596318 32,207.5" id="Fill-41" fill="#ebf0f9"/><path d="M87.9744164,204 L40.0255836,204 C38.9056876,204 38,203.104824 38,202 C38,200.895176 38.9056876,200 40.0255836,200 L87.9744164,200 C89.0933728,200 90,200.895176 90,202 C90,203.104824 89.0933728,204 87.9744164,204" id="Fill-43" fill="#ebf0f9"/><path d="M87.9744164,214 L40.0255836,214 C38.9056876,214 38,213.104104 38,211.999536 C38,210.894969 38.9056876,210 40.0255836,210 L87.9744164,210 C89.0933728,210 90,210.894969 90,211.999536 C90,213.104104 89.0933728,214 87.9744164,214" id="Fill-45" fill="#ebf0f9"/><path d="M32,247.5 C32,254.403682 26.4038953,260 19.5004764,260 C12.5970576,260 7,254.403682 7,247.5 C7,240.596318 12.5970576,235 19.5004764,235 C26.4038953,235 32,240.596318 32,247.5" id="Fill-47" fill="#ebf0f9"/><path d="M87.9744164,244 L40.0255836,244 C38.9056876,244 38,243.104824 38,242 C38,240.895176 38.9056876,240 40.0255836,240 L87.9744164,240 C89.0933728,240 90,240.895176 90,242 C90,243.104824 89.0933728,244 87.9744164,244" id="Fill-49" fill="#ebf0f9"/><path d="M87.9744164,255 L40.0255836,255 C38.9056876,255 38,254.104104 38,252.999536 C38,251.894969 38.9056876,251 40.0255836,251 L87.9744164,251 C89.0933728,251 90,251.894969 90,252.999536 C90,254.104104 89.0933728,255 87.9744164,255" id="Fill-51" fill="#ebf0f9"/><path d="M244.239122,209 L139.760878,209 C137.131186,209 135,206.8729 135,204.250358 L135,84.7496415 C135,82.1261558 137.131186,80 139.760878,80 L244.239122,80 C246.868814,80 249,82.1261558 249,84.7496415 L249,204.250358 C249,206.8729 246.868814,209 244.239122,209" id="Fill-53" fill="#98b1e3"/><path d="M301.491771,192 L224.508229,192 C222.570395,192 221,190.43418 221,188.501993 L221,100.498954 C221,98.5667663 222.570395,97 224.508229,97 L301.491771,97 C303.429605,97 305,98.5667663 305,100.498954 L305,188.501993 C305,190.43418 303.429605,192 301.491771,192" id="Fill-55" fill="#7496d9"/><path d="M285.684768,244 L180.317125,244 C179.037405,244 178,242.880262 178,241.5 C178,240.118717 179.037405,239 180.317125,239 L285.684768,239 C286.964488,239 288,240.118717 288,241.5 C288,242.880262 286.964488,244 285.684768,244" id="Fill-57" fill="#ebf0f9"/><path d="M285.684768,260 L180.317125,260 C179.037405,260 178,258.880262 178,257.501022 C178,256.119738 179.037405,255 180.317125,255 L285.684768,255 C286.964488,255 288,256.119738 288,257.501022 C288,258.880262 286.964488,260 285.684768,260" id="Fill-59" fill="#ebf0f9"/><path d="M285.684768,275 L180.317125,275 C179.037405,275 178,273.88049 178,272.500511 C178,271.11951 179.037405,270 180.317125,270 L285.684768,270 C286.964488,270 288,271.11951 288,272.500511 C288,273.88049 286.964488,275 285.684768,275" id="Fill-61" fill="#ebf0f9"/><path d="M285.684768,291 L180.317125,291 C179.037405,291 178,289.880262 178,288.5 C178,287.119738 179.037405,286 180.317125,286 L285.684768,286 C286.964488,286 288,287.119738 288,288.5 C288,289.880262 286.964488,291 285.684768,291" id="Fill-63" fill="#ebf0f9"/><path d="M285.684768,306 L180.317125,306 C179.037405,306 178,304.881283 178,303.501022 C178,302.119738 179.037405,301 180.317125,301 L285.684768,301 C286.964488,301 288,302.119738 288,303.501022 C288,304.881283 286.964488,306 285.684768,306" id="Fill-65" fill="#ebf0f9"/><path d="M324.980793,350 L218.019207,350 C216.351742,350 215,348.65961 215,347.008243 L215,327.990821 C215,326.338516 216.351742,325 218.019207,325 L324.980793,325 C326.649203,325 328,326.338516 328,327.990821 L328,347.008243 C328,348.65961 326.649203,350 324.980793,350" id="Fill-67" fill="#96afe2"/><path d="M415.698739,43 L374.302196,43 C373.031503,43 372,41.9369069 372,40.6261121 L372,32.3738879 C372,31.0621293 373.031503,30 374.302196,30 L415.698739,30 C416.969431,30 418,31.0621293 418,32.3738879 L418,40.6261121 C418,41.9369069 416.969431,43 415.698739,43" id="Fill-69" fill="#d8e2f4"/><path d="M415.698739,62 L374.302196,62 C373.031503,62 372,60.9369069 372,59.6261121 L372,51.3738879 C372,50.0621293 373.031503,49 374.302196,49 L415.698739,49 C416.969431,49 418,50.0621293 418,51.3738879 L418,59.6261121 C418,60.9369069 416.969431,62 415.698739,62" id="Fill-71" fill="#d8e2f4"/><path d="M415.698739,81 L374.302196,81 C373.031503,81 372,79.9369069 372,78.6261121 L372,70.3738879 C372,69.0621293 373.031503,68 374.302196,68 L415.698739,68 C416.969431,68 418,69.0621293 418,70.3738879 L418,78.6261121 C418,79.9369069 416.969431,81 415.698739,81" id="Fill-73" fill="#d8e2f4"/><path d="M415.698739,100 L374.302196,100 C373.031503,100 372,98.9369069 372,97.6251483 L372,89.3738879 C372,88.0621293 373.031503,87 374.302196,87 L415.698739,87 C416.969431,87 418,88.0621293 418,89.3738879 L418,97.6251483 C418,98.9369069 416.969431,100 415.698739,100" id="Fill-75" fill="#d8e2f4"/><path d="M415.698739,119 L374.302196,119 C373.031503,119 372,117.936907 372,116.625148 L372,108.373888 C372,107.062129 373.031503,106 374.302196,106 L415.698739,106 C416.969431,106 418,107.062129 418,108.373888 L418,116.625148 C418,117.936907 416.969431,119 415.698739,119" id="Fill-77" fill="#d8e2f4"/><path d="M415.698739,138 L374.302196,138 C373.031503,138 372,136.936907 372,135.625148 L372,127.373888 C372,126.062129 373.031503,125 374.302196,125 L415.698739,125 C416.969431,125 418,126.062129 418,127.373888 L418,135.625148 C418,136.936907 416.969431,138 415.698739,138" id="Fill-79" fill="#d8e2f4"/><path d="M409,206 L396.194708,206 C392.778978,206 390,203.178418 390,199.71126 L390,164 L390.56744,164 L390.56744,199.71126 C390.56744,202.86126 393.091347,205.424799 396.194708,205.424799 L409,205.424799 L409,206 Z" id="Fill-81" fill="#98b1e3"/><path d="M478.534103,298 L417.466842,298 C413.343588,298 410,294.657853 410,290.534266 L410,136.466679 C410,132.344037 413.343588,129 417.466842,129 L428.304679,129 C430.970666,129 433.131051,131.161954 433.131051,133.827546 C433.131051,136.492192 435.292381,138.653201 437.958368,138.653201 L458.041632,138.653201 C460.708564,138.653201 462.869894,136.492192 462.869894,133.827546 C462.869894,131.161954 465.030279,129 467.696266,129 L478.534103,129 C482.657357,129 486,132.344037 486,136.466679 L486,290.534266 C486,294.657853 482.657357,298 478.534103,298" id="Fill-83" fill="#ffffff"/><path d="M417.842522,129.686043 C413.899911,129.686043 410.691736,132.867815 410.691736,136.777979 L410.691736,290.222021 C410.691736,294.132185 413.899911,297.313957 417.842522,297.313957 L479.157478,297.313957 C483.100089,297.313957 486.308264,294.132185 486.308264,290.222021 L486.308264,136.777979 C486.308264,132.867815 483.100089,129.686043 479.157478,129.686043 L468.275681,129.686043 C465.793402,129.686043 463.775127,131.688649 463.775127,134.150499 C463.775127,136.989721 461.445618,139.300058 458.582836,139.300058 L438.417164,139.300058 C435.554382,139.300058 433.224873,136.989721 433.224873,134.150499 C433.224873,131.688649 431.205649,129.686043 428.724319,129.686043 L417.842522,129.686043 Z M479.157478,298 L417.842522,298 C413.517511,298 410,294.510497 410,290.222021 L410,136.777979 C410,132.489503 413.517511,129 417.842522,129 L428.724319,129 C431.5871,129 433.916609,131.311278 433.916609,134.150499 C433.916609,136.611409 435.934884,138.614015 438.417164,138.614015 L458.582836,138.614015 C461.065116,138.614015 463.08434,136.611409 463.08434,134.150499 C463.08434,131.311278 465.413849,129 468.275681,129 L479.157478,129 C483.48154,129 487,132.489503 487,136.777979 L487,290.222021 C487,294.510497 483.48154,298 479.157478,298 L479.157478,298 Z" id="Fill-85" fill="#000000"/><path d="M413,206.000452 C413,207.656932 411.657134,209 410,209 C408.343769,209 407,207.656932 407,206.000452 C407,204.343068 408.343769,203 410,203 C411.657134,203 413,204.343068 413,206.000452" id="Fill-87" fill="#98b1e3"/><path d="M495.694131,169 L436.305869,169 C435.584478,169 435,168.328391 435,167.500542 C435,166.671609 435.584478,166 436.305869,166 L495.694131,166 C496.415522,166 497,166.671609 497,167.500542 C497,168.328391 496.415522,169 495.694131,169" id="Fill-89" fill="#ebf0f9"/><path d="M495.694131,178 L436.305869,178 C435.584478,178 435,177.328391 435,176.499458 C435,175.671609 435.584478,175 436.305869,175 L495.694131,175 C496.415522,175 497,175.671609 497,176.499458 C497,177.328391 496.415522,178 495.694131,178" id="Fill-91" fill="#ebf0f9"/><path d="M495.694131,186 L436.305869,186 C435.584478,186 435,185.328633 435,184.5 C435,183.672451 435.584478,183 436.305869,183 L495.694131,183 C496.415522,183 497,183.672451 497,184.5 C497,185.328633 496.415522,186 495.694131,186" id="Fill-93" fill="#ebf0f9"/><path d="M495.694131,195 L436.305869,195 C435.584478,195 435,194.328391 435,193.500542 C435,192.671609 435.584478,192 436.305869,192 L495.694131,192 C496.415522,192 497,192.671609 497,193.500542 C497,194.328391 496.415522,195 495.694131,195" id="Fill-95" fill="#ebf0f9"/><path d="M495.694131,204 L436.305869,204 C435.584478,204 435,203.328391 435,202.499458 C435,201.671609 435.584478,201 436.305869,201 L495.694131,201 C496.415522,201 497,201.671609 497,202.499458 C497,203.328391 496.415522,204 495.694131,204" id="Fill-97" fill="#ebf0f9"/><path d="M503.403336,286 L443.597601,286 C442.161986,286 441,284.839851 441,283.407442 L441,253.592558 C441,252.161084 442.161986,251 443.597601,251 L503.403336,251 C504.837077,251 506,252.161084 506,253.592558 L506,283.407442 C506,284.839851 504.837077,286 503.403336,286" id="Fill-99" fill="#d8e2f4"/><path d="M483,267.999534 C483,272.970094 478.970094,277 473.999534,277 C469.028975,277 465,272.970094 465,267.999534 C465,263.028975 469.028975,259 473.999534,259 C478.970094,259 483,263.028975 483,267.999534" id="Fill-101" fill="#ebf0f9"/><path d="M477.825409,268.928928 L473.017014,273.821157 C472.641119,274.203605 472,273.931815 472,273.392117 L472,263.607658 C472,263.066989 472.641119,262.79714 473.017014,263.178618 L477.825409,268.070847 C478.058197,268.307693 478.058197,268.692082 477.825409,268.928928" id="Fill-103" fill="#d8e2f4"/><path d="M472.395872,264 L402.604128,264 C401.166266,264 400,262.817848 400,261.360401 L400,225.639599 C400,224.181199 401.166266,223 402.604128,223 L472.395872,223 C473.834674,223 475,224.181199 475,225.639599 L475,261.360401 C475,262.817848 473.834674,264 472.395872,264" id="Fill-105" fill="#ebf0f9"/><path d="M448,243.5 C448,249.299649 443.298705,254 437.5,254 C431.700351,254 427,249.299649 427,243.5 C427,237.700351 431.700351,233 437.5,233 C443.298705,233 448,237.700351 448,243.5" id="Fill-107" fill="#d8e2f4"/><path d="M441.796849,243.467448 L436.186982,248.804652 C435.748756,249.221578 435,248.927061 435,248.337106 L435,237.662699 C435,237.073664 435.748756,236.778227 436.186982,237.195153 L441.796849,242.531436 C442.067717,242.790979 442.067717,243.209746 441.796849,243.467448" id="Fill-109" fill="#ebf0f9"/></g></g></svg>