<svg xmlns="http://www.w3.org/2000/svg" xmlns:xlink="http://www.w3.org/1999/xlink" width="500" zoomAndPan="magnify" viewBox="0 0 375 374.999991" height="500" preserveAspectRatio="xMidYMid meet" version="1.0"><defs><g/></defs><g fill="#000000" fill-opacity="1"><g transform="translate(122.437717, 194.561924)"><g><path d="M 24.9375 -30.234375 L 24.9375 0 L 17.890625 0 L 17.890625 -2.890625 C 16.285156 -0.773438 14.082031 0.28125 11.28125 0.28125 C 8.1875 0.28125 5.703125 -0.757812 3.828125 -2.84375 C 1.953125 -4.9375 1.015625 -7.679688 1.015625 -11.078125 C 1.015625 -14.453125 1.9375 -17.15625 3.78125 -19.1875 C 5.632812 -21.226562 8.082031 -22.25 11.125 -22.25 C 14.03125 -22.25 16.285156 -21.191406 17.890625 -19.078125 L 17.890625 -30.234375 Z M 9.453125 -6.765625 C 10.347656 -5.703125 11.53125 -5.171875 13 -5.171875 C 14.46875 -5.171875 15.648438 -5.703125 16.546875 -6.765625 C 17.441406 -7.828125 17.890625 -9.210938 17.890625 -10.921875 C 17.890625 -12.609375 17.441406 -13.976562 16.546875 -15.03125 C 15.648438 -16.09375 14.46875 -16.625 13 -16.625 C 11.53125 -16.625 10.347656 -16.097656 9.453125 -15.046875 C 8.554688 -14.003906 8.09375 -12.628906 8.0625 -10.921875 C 8.09375 -9.210938 8.554688 -7.828125 9.453125 -6.765625 Z M 9.453125 -6.765625 "/></g></g></g><g fill="#000000" fill-opacity="1"><g transform="translate(148.07043, 194.561924)"><g><path d="M 12.671875 -22.296875 C 15.691406 -22.296875 18.035156 -21.59375 19.703125 -20.1875 C 21.367188 -18.789062 22.21875 -16.84375 22.25 -14.34375 L 22.25 0 L 15.359375 0 L 15.359375 -2.53125 C 13.921875 -0.625 11.679688 0.328125 8.640625 0.328125 C 6.328125 0.328125 4.488281 -0.304688 3.125 -1.578125 C 1.769531 -2.859375 1.09375 -4.519531 1.09375 -6.5625 C 1.09375 -8.65625 1.816406 -10.273438 3.265625 -11.421875 C 4.722656 -12.578125 6.8125 -13.171875 9.53125 -13.203125 L 15.328125 -13.203125 L 15.328125 -13.53125 C 15.328125 -14.613281 14.960938 -15.460938 14.234375 -16.078125 C 13.515625 -16.691406 12.453125 -17 11.046875 -17 C 9.054688 -17 6.867188 -16.382812 4.484375 -15.15625 L 2.484375 -19.796875 C 6.046875 -21.460938 9.441406 -22.296875 12.671875 -22.296875 Z M 10.796875 -4.4375 C 11.910156 -4.4375 12.890625 -4.710938 13.734375 -5.265625 C 14.578125 -5.828125 15.109375 -6.554688 15.328125 -7.453125 L 15.328125 -9.40625 L 10.875 -9.40625 C 8.757812 -9.40625 7.703125 -8.617188 7.703125 -7.046875 C 7.703125 -6.234375 7.972656 -5.59375 8.515625 -5.125 C 9.054688 -4.664062 9.816406 -4.4375 10.796875 -4.4375 Z M 10.796875 -4.4375 "/></g></g></g><g fill="#000000" fill-opacity="1"><g transform="translate(170.19848, 194.561924)"><g><path d="M 17.203125 -22.296875 C 19.617188 -22.296875 21.554688 -21.523438 23.015625 -19.984375 C 24.484375 -18.453125 25.21875 -16.410156 25.21875 -13.859375 L 25.21875 0 L 18.21875 0 L 18.21875 -11.90625 C 18.21875 -13.175781 17.867188 -14.1875 17.171875 -14.9375 C 16.484375 -15.6875 15.539062 -16.0625 14.34375 -16.0625 C 13.09375 -16.0625 12.066406 -15.648438 11.265625 -14.828125 C 10.460938 -14.015625 9.992188 -12.941406 9.859375 -11.609375 L 9.859375 0 L 2.8125 0 L 2.8125 -21.96875 L 9.859375 -21.96875 L 9.859375 -18.375 C 11.410156 -20.925781 13.859375 -22.234375 17.203125 -22.296875 Z M 17.203125 -22.296875 "/></g></g></g><g fill="#000000" fill-opacity="1"><g transform="translate(195.301414, 194.561924)"><g><path d="M 12.671875 -22.296875 C 15.691406 -22.296875 18.035156 -21.59375 19.703125 -20.1875 C 21.367188 -18.789062 22.21875 -16.84375 22.25 -14.34375 L 22.25 0 L 15.359375 0 L 15.359375 -2.53125 C 13.921875 -0.625 11.679688 0.328125 8.640625 0.328125 C 6.328125 0.328125 4.488281 -0.304688 3.125 -1.578125 C 1.769531 -2.859375 1.09375 -4.519531 1.09375 -6.5625 C 1.09375 -8.65625 1.816406 -10.273438 3.265625 -11.421875 C 4.722656 -12.578125 6.8125 -13.171875 9.53125 -13.203125 L 15.328125 -13.203125 L 15.328125 -13.53125 C 15.328125 -14.613281 14.960938 -15.460938 14.234375 -16.078125 C 13.515625 -16.691406 12.453125 -17 11.046875 -17 C 9.054688 -17 6.867188 -16.382812 4.484375 -15.15625 L 2.484375 -19.796875 C 6.046875 -21.460938 9.441406 -22.296875 12.671875 -22.296875 Z M 10.796875 -4.4375 C 11.910156 -4.4375 12.890625 -4.710938 13.734375 -5.265625 C 14.578125 -5.828125 15.109375 -6.554688 15.328125 -7.453125 L 15.328125 -9.40625 L 10.875 -9.40625 C 8.757812 -9.40625 7.703125 -8.617188 7.703125 -7.046875 C 7.703125 -6.234375 7.972656 -5.59375 8.515625 -5.125 C 9.054688 -4.664062 9.816406 -4.4375 10.796875 -4.4375 Z M 10.796875 -4.4375 "/></g></g></g><g fill="#000000" fill-opacity="1"><g transform="translate(217.429461, 194.561924)"><g><path d="M 10.671875 -22.296875 C 13.910156 -22.296875 16.925781 -21.460938 19.71875 -19.796875 L 17.3125 -15.234375 C 14.601562 -16.703125 12.296875 -17.4375 10.390625 -17.4375 C 8.953125 -17.4375 8.234375 -16.9375 8.234375 -15.9375 C 8.234375 -15.394531 8.625 -14.9375 9.40625 -14.5625 C 10.195312 -14.195312 11.160156 -13.863281 12.296875 -13.5625 C 13.441406 -13.269531 14.578125 -12.898438 15.703125 -12.453125 C 16.835938 -12.003906 17.796875 -11.289062 18.578125 -10.3125 C 19.367188 -9.332031 19.765625 -8.132812 19.765625 -6.71875 C 19.765625 -4.519531 18.90625 -2.800781 17.1875 -1.5625 C 15.476562 -0.332031 13.253906 0.28125 10.515625 0.28125 C 6.628906 0.28125 3.34375 -0.75 0.65625 -2.8125 L 2.890625 -7.296875 C 5.472656 -5.472656 8.066406 -4.5625 10.671875 -4.5625 C 12.273438 -4.5625 13.078125 -5.066406 13.078125 -6.078125 C 13.078125 -6.640625 12.691406 -7.109375 11.921875 -7.484375 C 11.148438 -7.867188 10.207031 -8.210938 9.09375 -8.515625 C 7.976562 -8.816406 6.863281 -9.191406 5.75 -9.640625 C 4.632812 -10.085938 3.6875 -10.785156 2.90625 -11.734375 C 2.132812 -12.679688 1.75 -13.878906 1.75 -15.328125 C 1.75 -17.523438 2.578125 -19.234375 4.234375 -20.453125 C 5.890625 -21.679688 8.035156 -22.296875 10.671875 -22.296875 Z M 10.671875 -22.296875 "/></g></g></g><g fill="#0658f6" fill-opacity="1"><g transform="translate(238.458798, 195.640399)"><g><path d="M 21.390625 -19.6875 L 13.9375 -19.6875 L 13.9375 0 L 7.640625 0 L 7.640625 -19.6875 L 0.25 -19.6875 L 0.25 -24.78125 L 21.390625 -24.78125 Z M 21.390625 -19.6875 "/></g></g></g><g fill="#0658f6" fill-opacity="1"><g transform="translate(258.048052, 195.640399)"><g><path d="M 10.78125 -19.265625 C 14.082031 -19.265625 16.5625 -18.25 18.21875 -16.21875 C 19.882812 -14.195312 20.613281 -11.421875 20.40625 -7.890625 L 7 -7.890625 C 7.300781 -6.753906 7.84375 -5.878906 8.625 -5.265625 C 9.40625 -4.648438 10.359375 -4.34375 11.484375 -4.34375 C 13.234375 -4.34375 14.753906 -4.992188 16.046875 -6.296875 L 19.265625 -3.140625 C 17.210938 -0.898438 14.445312 0.21875 10.96875 0.21875 C 7.875 0.21875 5.410156 -0.664062 3.578125 -2.4375 C 1.753906 -4.207031 0.84375 -6.550781 0.84375 -9.46875 C 0.84375 -12.414062 1.753906 -14.785156 3.578125 -16.578125 C 5.410156 -18.367188 7.8125 -19.265625 10.78125 -19.265625 Z M 6.890625 -11.171875 L 14.53125 -11.171875 C 14.53125 -12.328125 14.191406 -13.257812 13.515625 -13.96875 C 12.847656 -14.675781 11.960938 -15.03125 10.859375 -15.03125 C 9.816406 -15.03125 8.941406 -14.679688 8.234375 -13.984375 C 7.523438 -13.285156 7.078125 -12.347656 6.890625 -11.171875 Z M 6.890625 -11.171875 "/></g></g></g><g fill="#0658f6" fill-opacity="1"><g transform="translate(277.319068, 195.640399)"><g><path d="M 10.75 -19.265625 C 12.632812 -19.265625 14.3125 -18.894531 15.78125 -18.15625 C 17.257812 -17.414062 18.410156 -16.363281 19.234375 -15 L 14.84375 -12.34375 C 13.90625 -13.664062 12.625 -14.328125 11 -14.328125 C 9.820312 -14.328125 8.859375 -13.882812 8.109375 -13 C 7.367188 -12.113281 7 -10.953125 7 -9.515625 C 7 -8.046875 7.363281 -6.867188 8.09375 -5.984375 C 8.820312 -5.109375 9.789062 -4.671875 11 -4.671875 C 12.789062 -4.671875 14.085938 -5.390625 14.890625 -6.828125 L 19.34375 -4.203125 C 18.5625 -2.796875 17.421875 -1.707031 15.921875 -0.9375 C 14.429688 -0.164062 12.679688 0.21875 10.671875 0.21875 C 7.734375 0.21875 5.359375 -0.671875 3.546875 -2.453125 C 1.742188 -4.234375 0.84375 -6.570312 0.84375 -9.46875 C 0.84375 -12.394531 1.753906 -14.757812 3.578125 -16.5625 C 5.410156 -18.363281 7.800781 -19.265625 10.75 -19.265625 Z M 10.75 -19.265625 "/></g></g></g><g fill="#0658f6" fill-opacity="1"><g transform="translate(295.175677, 195.640399)"><g><path d="M 15.140625 -19.34375 C 17.234375 -19.34375 18.914062 -18.675781 20.1875 -17.34375 C 21.457031 -16.007812 22.09375 -14.234375 22.09375 -12.015625 L 22.09375 0 L 15.984375 0 L 15.984375 -10.328125 C 15.984375 -11.429688 15.679688 -12.304688 15.078125 -12.953125 C 14.472656 -13.609375 13.65625 -13.9375 12.625 -13.9375 C 11.445312 -13.9375 10.503906 -13.507812 9.796875 -12.65625 C 9.085938 -11.8125 8.734375 -10.726562 8.734375 -9.40625 L 8.734375 0 L 2.609375 0 L 2.609375 -26.234375 L 8.734375 -26.234375 L 8.734375 -15.90625 C 10.078125 -18.144531 12.210938 -19.289062 15.140625 -19.34375 Z M 15.140625 -19.34375 "/></g></g></g><g fill="#0658f6" fill-opacity="1"><g transform="translate(317.134049, 195.640399)"><g><path d="M 2.15625 -4.8125 C 2.695312 -5.351562 3.40625 -5.625 4.28125 -5.625 C 5.15625 -5.625 5.867188 -5.351562 6.421875 -4.8125 C 6.972656 -4.269531 7.25 -3.5625 7.25 -2.6875 C 7.25 -1.8125 6.972656 -1.097656 6.421875 -0.546875 C 5.867188 0.00390625 5.15625 0.28125 4.28125 0.28125 C 3.40625 0.28125 2.695312 0.00390625 2.15625 -0.546875 C 1.613281 -1.097656 1.34375 -1.8125 1.34375 -2.6875 C 1.34375 -3.5625 1.613281 -4.269531 2.15625 -4.8125 Z M 2.15625 -4.8125 "/></g></g></g><g fill="#000000" fill-opacity="1"><g transform="translate(69.335719, 219.155298)"><g><path d="M 51.609375 -37.46875 L 51.609375 -33.21875 C 51.609375 -31.675781 50.628906 -30.265625 48.671875 -28.984375 L 8.28125 -1.71875 C 7.945312 -1.507812 7.523438 -1.40625 7.015625 -1.40625 C 6.515625 -1.40625 6.0625 -1.609375 5.65625 -2.015625 C 5.25 -2.421875 5.046875 -2.925781 5.046875 -3.53125 L 5.046875 -19.890625 C 5.046875 -20.703125 5.265625 -21.425781 5.703125 -22.0625 C 6.140625 -22.707031 6.507812 -23.128906 6.8125 -23.328125 C 7.113281 -23.523438 7.601562 -23.828125 8.28125 -24.234375 L 25.953125 -35.34375 L 8.28125 -46.359375 C 6.125 -47.628906 5.046875 -49.109375 5.046875 -50.796875 L 5.046875 -67.15625 C 5.046875 -67.757812 5.25 -68.265625 5.65625 -68.671875 C 6.0625 -69.078125 6.515625 -69.28125 7.015625 -69.28125 C 7.523438 -69.28125 7.945312 -69.175781 8.28125 -68.96875 L 48.671875 -41.703125 C 50.628906 -40.421875 51.609375 -39.007812 51.609375 -37.46875 Z M 51.609375 -37.46875 "/></g></g></g><g fill="#000000" fill-opacity="1"><g transform="translate(118.9208, 219.155298)"><g/></g></g><g fill="#000000" fill-opacity="1"><g transform="translate(66.097478, 174.30671)"><g><path d="M -22.546875 15.359375 L -22.484375 13.546875 C -22.460938 12.878906 -22.03125 12.289062 -21.1875 11.78125 L -3.5625 0.625 C -3.414062 0.550781 -3.234375 0.515625 -3.015625 0.515625 C -2.796875 0.523438 -2.601562 0.617188 -2.4375 0.796875 C -2.269531 0.972656 -2.191406 1.191406 -2.203125 1.453125 L -2.40625 8.453125 C -2.414062 8.796875 -2.519531 9.097656 -2.71875 9.359375 C -2.914062 9.628906 -3.078125 9.804688 -3.203125 9.890625 C -3.335938 9.972656 -3.554688 10.097656 -3.859375 10.265625 L -11.5625 14.796875 L -4.140625 19.703125 C -3.234375 20.285156 -2.789062 20.9375 -2.8125 21.65625 L -3.015625 28.65625 C -3.023438 28.914062 -3.117188 29.128906 -3.296875 29.296875 C -3.472656 29.460938 -3.671875 29.539062 -3.890625 29.53125 C -4.109375 29.53125 -4.289062 29.476562 -4.4375 29.375 L -21.34375 17.203125 C -22.164062 16.628906 -22.566406 16.015625 -22.546875 15.359375 Z M -22.546875 15.359375 "/></g></g></g></svg>