<?xml version="1.0" encoding="UTF-8" standalone="no"?>
<svg
   width="401.94199"
   zoomAndPan="magnify"
   viewBox="0 0 301.45648 100.1489"
   height="133.532"
   preserveAspectRatio="xMidYMid"
   version="1.0"
   id="svg40"
   sodipodi:docname="Logotipo.svg"
   inkscape:version="1.3.2 (091e20e, 2023-11-25, custom)"
   xmlns:inkscape="http://www.inkscape.org/namespaces/inkscape"
   xmlns:sodipodi="http://sodipodi.sourceforge.net/DTD/sodipodi-0.dtd"
   xmlns="http://www.w3.org/2000/svg"
   xmlns:svg="http://www.w3.org/2000/svg">
  <sodipodi:namedview
     id="namedview40"
     pagecolor="#ffffff"
     bordercolor="#000000"
     borderopacity="0.25"
     inkscape:showpageshadow="2"
     inkscape:pageopacity="0.0"
     inkscape:pagecheckerboard="0"
     inkscape:deskcolor="#d1d1d1"
     showguides="true"
     inkscape:zoom="1.165312"
     inkscape:cx="190.50692"
     inkscape:cy="180.63832"
     inkscape:window-width="1366"
     inkscape:window-height="745"
     inkscape:window-x="-8"
     inkscape:window-y="-8"
     inkscape:window-maximized="1"
     inkscape:current-layer="svg40" />
  <defs
     id="defs1">
    <g
       id="g1" />
  </defs>
  <g
     fill="#000000"
     fill-opacity="1"
     id="g4"
     transform="translate(-32.896577,-133.1753)">
    <g
       transform="translate(122.43772,194.56192)"
       id="g3">
      <g
         id="g2">
        <path
           d="M 24.9375,-30.234375 V 0 h -7.046875 v -2.890625 c -1.605469,2.117187 -3.808594,3.171875 -6.609375,3.171875 -3.09375,0 -5.578125,-1.039062 -7.453125,-3.125 -1.875,-2.09375 -2.8125,-4.835938 -2.8125,-8.234375 0,-3.375 0.921875,-6.078125 2.765625,-8.109375 1.851562,-2.039062 4.300781,-3.0625 7.34375,-3.0625 2.90625,0 5.160156,1.058594 6.765625,3.171875 v -11.15625 z M 9.453125,-6.765625 c 0.894531,1.0625 2.078125,1.59375 3.546875,1.59375 1.46875,0 2.648438,-0.53125 3.546875,-1.59375 0.894531,-1.0625 1.34375,-2.445313 1.34375,-4.15625 0,-1.6875 -0.449219,-3.054687 -1.34375,-4.109375 C 15.648438,-16.09375 14.46875,-16.625 13,-16.625 c -1.46875,0 -2.652344,0.527344 -3.546875,1.578125 -0.898437,1.042969 -1.359375,2.417969 -1.390625,4.125 0.03125,1.710937 0.492188,3.09375 1.390625,4.15625 z m 0,0"
           id="path1" />
      </g>
    </g>
  </g>
  <g
     fill="#000000"
     fill-opacity="1"
     id="g7"
     transform="translate(-32.896577,-133.1753)">
    <g
       transform="translate(148.07043,194.56192)"
       id="g6">
      <g
         id="g5">
        <path
           d="m 12.671875,-22.296875 c 3.019531,0 5.363281,0.703125 7.03125,2.109375 1.664063,1.398438 2.515625,3.34375 2.546875,5.84375 V 0 h -6.890625 v -2.53125 c -1.4375,1.90625 -3.679687,2.859375 -6.71875,2.859375 -2.3125,0 -4.152344,-0.632813 -5.515625,-1.90625 -1.355469,-1.28125 -2.03125,-2.941406 -2.03125,-4.984375 0,-2.09375 0.722656,-3.710938 2.171875,-4.859375 1.457031,-1.15625 3.546875,-1.75 6.265625,-1.78125 h 5.796875 v -0.328125 c 0,-1.082031 -0.367187,-1.929688 -1.09375,-2.546875 C 13.515625,-16.691406 12.453125,-17 11.046875,-17 c -1.992187,0 -4.179687,0.617188 -6.5625,1.84375 l -2,-4.640625 c 3.5625,-1.664063 6.957031,-2.5 10.1875,-2.5 z m -1.875,17.859375 c 1.113281,0 2.09375,-0.273438 2.9375,-0.828125 0.84375,-0.5625 1.375,-1.289063 1.59375,-2.1875 V -9.40625 H 10.875 c -2.117188,0 -3.171875,0.789062 -3.171875,2.359375 0,0.8125 0.269531,1.453125 0.8125,1.921875 0.539063,0.460938 1.300781,0.6875 2.28125,0.6875 z m 0,0"
           id="path4" />
      </g>
    </g>
  </g>
  <g
     fill="#000000"
     fill-opacity="1"
     id="g10"
     transform="translate(-33.485937,-133.33901)">
    <g
       transform="translate(170.19848,194.56192)"
       id="g9">
      <g
         id="g8">
        <path
           d="m 17.203125,-22.296875 c 2.414063,0 4.351563,0.773437 5.8125,2.3125 1.46875,1.53125 2.203125,3.574219 2.203125,6.125 V 0 h -7 v -11.90625 c 0,-1.269531 -0.351562,-2.28125 -1.046875,-3.03125 -0.6875,-0.75 -1.632813,-1.125 -2.828125,-1.125 -1.25,0 -2.277344,0.414062 -3.078125,1.234375 -0.804687,0.8125 -1.273437,1.886719 -1.40625,3.21875 V 0 H 2.8125 v -21.96875 h 7.046875 v 3.59375 c 1.550781,-2.550781 4,-3.859375 7.34375,-3.921875 z m 0,0"
           id="path7" />
      </g>
    </g>
  </g>
  <g
     fill="#000000"
     fill-opacity="1"
     id="g13"
     transform="translate(-32.896577,-133.1753)">
    <g
       transform="translate(195.30141,194.56192)"
       id="g12">
      <g
         id="g11">
        <path
           d="m 12.671875,-22.296875 c 3.019531,0 5.363281,0.703125 7.03125,2.109375 1.664063,1.398438 2.515625,3.34375 2.546875,5.84375 V 0 h -6.890625 v -2.53125 c -1.4375,1.90625 -3.679687,2.859375 -6.71875,2.859375 -2.3125,0 -4.152344,-0.632813 -5.515625,-1.90625 -1.355469,-1.28125 -2.03125,-2.941406 -2.03125,-4.984375 0,-2.09375 0.722656,-3.710938 2.171875,-4.859375 1.457031,-1.15625 3.546875,-1.75 6.265625,-1.78125 h 5.796875 v -0.328125 c 0,-1.082031 -0.367187,-1.929688 -1.09375,-2.546875 C 13.515625,-16.691406 12.453125,-17 11.046875,-17 c -1.992187,0 -4.179687,0.617188 -6.5625,1.84375 l -2,-4.640625 c 3.5625,-1.664063 6.957031,-2.5 10.1875,-2.5 z m -1.875,17.859375 c 1.113281,0 2.09375,-0.273438 2.9375,-0.828125 0.84375,-0.5625 1.375,-1.289063 1.59375,-2.1875 V -9.40625 H 10.875 c -2.117188,0 -3.171875,0.789062 -3.171875,2.359375 0,0.8125 0.269531,1.453125 0.8125,1.921875 0.539063,0.460938 1.300781,0.6875 2.28125,0.6875 z m 0,0"
           id="path10" />
      </g>
    </g>
  </g>
  <g
     fill="#000000"
     fill-opacity="1"
     id="g16"
     transform="translate(-32.896577,-133.1753)">
    <g
       transform="translate(217.42946,194.56192)"
       id="g15">
      <g
         id="g14">
        <path
           d="m 10.671875,-22.296875 c 3.238281,0 6.253906,0.835937 9.046875,2.5 l -2.40625,4.5625 c -2.710938,-1.46875 -5.015625,-2.203125 -6.921875,-2.203125 -1.4375,0 -2.15625,0.5 -2.15625,1.5 0,0.542969 0.390625,1 1.171875,1.375 0.789062,0.367188 1.753906,0.699219 2.890625,1 1.144531,0.292969 2.28125,0.664062 3.40625,1.109375 1.132813,0.449219 2.09375,1.164063 2.875,2.140625 0.789063,0.980469 1.1875,2.179688 1.1875,3.59375 0,2.199219 -0.859375,3.917969 -2.578125,5.15625 -1.710938,1.230469 -3.933594,1.84375 -6.671875,1.84375 C 6.628906,0.28125 3.34375,-0.75 0.65625,-2.8125 l 2.234375,-4.484375 c 2.582031,1.824219 5.175781,2.734375 7.78125,2.734375 1.601563,0 2.40625,-0.503906 2.40625,-1.515625 0,-0.5625 -0.386719,-1.03125 -1.15625,-1.40625 C 11.148438,-7.867188 10.207031,-8.210938 9.09375,-8.515625 7.976562,-8.816406 6.863281,-9.191406 5.75,-9.640625 4.632812,-10.085938 3.6875,-10.785156 2.90625,-11.734375 2.132812,-12.679688 1.75,-13.878906 1.75,-15.328125 c 0,-2.195313 0.828125,-3.90625 2.484375,-5.125 1.65625,-1.226563 3.800781,-1.84375 6.4375,-1.84375 z m 0,0"
           id="path13" />
      </g>
    </g>
  </g>
  <g
     fill="#0658f6"
     fill-opacity="1"
     id="g19"
     transform="translate(-32.896577,-133.1753)">
    <g
       transform="translate(238.4588,195.6404)"
       id="g18">
      <g
         id="g17">
        <path
           d="M 21.390625,-19.6875 H 13.9375 V 0 H 7.640625 V -19.6875 H 0.25 v -5.09375 h 21.140625 z m 0,0"
           id="path16" />
      </g>
    </g>
  </g>
  <g
     fill="#0658f6"
     fill-opacity="1"
     id="g22"
     transform="translate(-32.896577,-133.1753)">
    <g
       transform="translate(258.04805,195.6404)"
       id="g21">
      <g
         id="g20">
        <path
           d="m 10.78125,-19.265625 c 3.300781,0 5.78125,1.015625 7.4375,3.046875 1.664062,2.023438 2.394531,4.796875 2.1875,8.328125 H 7 c 0.300781,1.136719 0.84375,2.011719 1.625,2.625 0.78125,0.617187 1.734375,0.921875 2.859375,0.921875 1.75,0 3.269531,-0.648438 4.5625,-1.953125 l 3.21875,3.15625 C 17.210938,-0.898438 14.445312,0.21875 10.96875,0.21875 7.875,0.21875 5.410156,-0.664062 3.578125,-2.4375 1.753906,-4.207031 0.84375,-6.550781 0.84375,-9.46875 c 0,-2.945312 0.910156,-5.316406 2.734375,-7.109375 1.832031,-1.789063 4.234375,-2.6875 7.203125,-2.6875 z m -3.890625,8.09375 h 7.640625 c 0,-1.15625 -0.339844,-2.085937 -1.015625,-2.796875 -0.667969,-0.707031 -1.554687,-1.0625 -2.65625,-1.0625 -1.042969,0 -1.917969,0.351562 -2.625,1.046875 -0.710937,0.699219 -1.15625,1.636719 -1.34375,2.8125 z m 0,0"
           id="path19" />
      </g>
    </g>
  </g>
  <g
     fill="#0658f6"
     fill-opacity="1"
     id="g25"
     transform="translate(-32.896577,-133.1753)">
    <g
       transform="translate(277.31907,195.6404)"
       id="g24">
      <g
         id="g23">
        <path
           d="m 10.75,-19.265625 c 1.882812,0 3.5625,0.371094 5.03125,1.109375 1.476562,0.742188 2.628906,1.792969 3.453125,3.15625 l -4.390625,2.65625 C 13.90625,-13.664062 12.625,-14.328125 11,-14.328125 9.820312,-14.328125 8.859375,-13.882812 8.109375,-13 7.367188,-12.113281 7,-10.953125 7,-9.515625 c 0,1.46875 0.363281,2.648437 1.09375,3.53125 0.726562,0.875 1.695312,1.3125 2.90625,1.3125 1.789062,0 3.085938,-0.71875 3.890625,-2.15625 l 4.453125,2.625 c -0.78125,1.40625 -1.921875,2.496094 -3.421875,3.265625 -1.492187,0.773438 -3.242187,1.15625 -5.25,1.15625 -2.9375,0 -5.3125,-0.890625 -7.125,-2.671875 C 1.742188,-4.234375 0.84375,-6.570312 0.84375,-9.46875 c 0,-2.925781 0.910156,-5.289062 2.734375,-7.09375 1.832031,-1.800781 4.222656,-2.703125 7.171875,-2.703125 z m 0,0"
           id="path22" />
      </g>
    </g>
  </g>
  <g
     fill="#0658f6"
     fill-opacity="1"
     id="g28"
     transform="translate(-32.896577,-133.1753)">
    <g
       transform="translate(295.17568,195.6404)"
       id="g27">
      <g
         id="g26">
        <path
           d="m 15.140625,-19.34375 c 2.09375,0 3.773437,0.667969 5.046875,2 1.269531,1.335938 1.90625,3.109375 1.90625,5.328125 V 0 h -6.109375 v -10.328125 c 0,-1.101563 -0.304687,-1.976563 -0.90625,-2.625 -0.605469,-0.65625 -1.421875,-0.984375 -2.453125,-0.984375 -1.179688,0 -2.121094,0.429688 -2.828125,1.28125 -0.710937,0.84375 -1.0625,1.929688 -1.0625,3.25 V 0 h -6.125 v -26.234375 h 6.125 v 10.328125 c 1.34375,-2.238281 3.476563,-3.382812 6.40625,-3.4375 z m 0,0"
           id="path25" />
      </g>
    </g>
  </g>
  <g
     fill="#0658f6"
     fill-opacity="1"
     id="g31"
     transform="translate(-32.896577,-133.1753)">
    <g
       transform="translate(317.13405,195.6404)"
       id="g30">
      <g
         id="g29">
        <path
           d="m 2.15625,-4.8125 c 0.539062,-0.539062 1.25,-0.8125 2.125,-0.8125 0.875,0 1.585938,0.273438 2.140625,0.8125 0.550781,0.542969 0.828125,1.25 0.828125,2.125 0,0.875 -0.277344,1.589844 -0.828125,2.140625 C 5.867188,0.00390625 5.15625,0.28125 4.28125,0.28125 c -0.875,0 -1.585938,-0.27734375 -2.125,-0.828125 C 1.613281,-1.097656 1.34375,-1.8125 1.34375,-2.6875 c 0,-0.875 0.269531,-1.582031 0.8125,-2.125 z m 0,0"
           id="path28" />
      </g>
    </g>
  </g>
  <g
     fill="#000000"
     fill-opacity="1"
     id="g34"
     transform="translate(-32.177286,-133.40931)">
    <g
       transform="translate(69.335719,219.1553)"
       id="g33">
      <g
         id="g32">
        <path
           d="m 51.609375,-37.46875 v 4.25 c 0,1.542969 -0.980469,2.953125 -2.9375,4.234375 L 8.28125,-1.71875 c -0.335938,0.210938 -0.757812,0.3125 -1.265625,0.3125 -0.5,0 -0.953125,-0.203125 -1.359375,-0.609375 C 5.25,-2.421875 5.046875,-2.925781 5.046875,-3.53125 v -16.359375 c 0,-0.8125 0.21875,-1.535156 0.65625,-2.171875 0.4375,-0.644531 0.804687,-1.066406 1.109375,-1.265625 0.300781,-0.195313 0.789062,-0.5 1.46875,-0.90625 L 25.953125,-35.34375 8.28125,-46.359375 c -2.15625,-1.269531 -3.234375,-2.75 -3.234375,-4.4375 V -67.15625 c 0,-0.601562 0.203125,-1.109375 0.609375,-1.515625 0.40625,-0.40625 0.859375,-0.609375 1.359375,-0.609375 0.507813,0 0.929687,0.105469 1.265625,0.3125 l 40.390625,27.265625 c 1.957031,1.28125 2.9375,2.695313 2.9375,4.234375 z m 0,0"
           id="path31" />
      </g>
    </g>
  </g>
  <g
     fill="#000000"
     fill-opacity="1"
     id="g37">
    <g
       transform="translate(118.9208,219.1553)"
       id="g36">
      <g
         id="g35" />
    </g>
  </g>
  <g
     fill="#000000"
     fill-opacity="1"
     id="g40"
     transform="translate(-32.896586,-138.92816)">
    <g
       transform="translate(66.097478,174.30671)"
       id="g39">
      <g
         id="g38">
        <path
           d="m -22.546875,15.359375 0.0625,-1.8125 c 0.02344,-0.667969 0.453125,-1.257813 1.296875,-1.765625 L -3.5625,0.625 c 0.148438,-0.074219 0.328125,-0.109375 0.546875,-0.109375 0.21875,0.007813 0.414063,0.101563 0.578125,0.28125 0.167969,0.175781 0.246094,0.394531 0.234375,0.65625 l -0.203125,7 c -0.00781,0.34375 -0.113281,0.644531 -0.3125,0.90625 -0.195312,0.269531 -0.359375,0.445313 -0.484375,0.53125 -0.132813,0.082031 -0.351563,0.207031 -0.65625,0.375 l -7.703125,4.53125 7.421875,4.90625 c 0.90625,0.582031 1.351563,1.234375 1.328125,1.953125 l -0.203125,7 c -0.00781,0.257812 -0.101563,0.472656 -0.28125,0.640625 -0.175781,0.164063 -0.375,0.242187 -0.59375,0.234375 -0.21875,0 -0.398437,-0.05469 -0.546875,-0.15625 L -21.34375,17.203125 c -0.820312,-0.574219 -1.222656,-1.1875 -1.203125,-1.84375 z m 0,0"
           id="path37" />
      </g>
    </g>
  </g>
</svg>
