<svg xmlns="http://www.w3.org/2000/svg" xmlns:xlink="http://www.w3.org/1999/xlink" width="500" zoomAndPan="magnify" viewBox="0 0 375 374.999991" height="500" preserveAspectRatio="xMidYMid meet" version="1.0"><defs><clipPath id="28bd12ad6b"><path d="M 192.167969 173.546875 L 264.917969 173.546875 L 264.917969 246 L 192.167969 246 Z M 192.167969 173.546875 " clip-rule="nonzero"/></clipPath><clipPath id="7478d8dfb6"><path d="M 191.417969 209.832031 C 191.417969 230.285156 207.996094 246.867188 228.449219 246.867188 C 248.90625 246.867188 265.484375 230.285156 265.484375 209.832031 C 265.484375 189.378906 248.90625 172.796875 228.449219 172.796875 C 207.996094 172.796875 191.417969 189.378906 191.417969 209.832031 Z M 191.417969 209.832031 " clip-rule="nonzero"/></clipPath><clipPath id="542b5bd233"><path d="M 228.449219 173.699219 C 248.40625 173.699219 264.585938 189.875 264.585938 209.832031 C 264.585938 229.789062 248.40625 245.96875 228.449219 245.96875 C 208.496094 245.96875 192.316406 229.789062 192.316406 209.832031 C 192.316406 189.875 208.496094 173.699219 228.449219 173.699219 Z M 228.449219 173.699219 " clip-rule="nonzero"/></clipPath><clipPath id="384b23fc9c"><path d="M 191.417969 172.796875 L 265.660156 172.796875 L 265.660156 247 L 191.417969 247 Z M 191.417969 172.796875 " clip-rule="nonzero"/></clipPath><clipPath id="96f803e44c"><path d="M 191.417969 209.832031 C 191.417969 230.285156 207.996094 246.867188 228.449219 246.867188 C 248.90625 246.867188 265.484375 230.285156 265.484375 209.832031 C 265.484375 189.378906 248.90625 172.796875 228.449219 172.796875 C 207.996094 172.796875 191.417969 189.378906 191.417969 209.832031 Z M 191.417969 209.832031 " clip-rule="nonzero"/></clipPath><clipPath id="258d172ee6"><path d="M 191.417969 209.828125 C 191.417969 230.28125 207.996094 246.859375 228.449219 246.859375 C 248.898438 246.859375 265.480469 230.28125 265.480469 209.828125 C 265.480469 189.378906 248.898438 172.796875 228.449219 172.796875 C 207.996094 172.796875 191.417969 189.378906 191.417969 209.828125 Z M 191.417969 209.828125 " clip-rule="nonzero"/></clipPath><clipPath id="56ccd67a23"><path d="M 109.515625 91.589844 L 179.265625 91.589844 L 179.265625 162.839844 L 109.515625 162.839844 Z M 109.515625 91.589844 " clip-rule="nonzero"/></clipPath><clipPath id="d8d0e53151"><path d="M 126.761719 91.589844 L 162.261719 91.589844 C 171.789062 91.589844 179.511719 99.308594 179.511719 108.835938 L 179.511719 145.71875 C 179.511719 155.246094 171.789062 162.96875 162.261719 162.96875 L 126.761719 162.96875 C 117.238281 162.96875 109.515625 155.246094 109.515625 145.71875 L 109.515625 108.835938 C 109.515625 99.308594 117.238281 91.589844 126.761719 91.589844 Z M 126.761719 91.589844 " clip-rule="nonzero"/></clipPath><clipPath id="b212d57585"><path d="M 195.476562 91.589844 L 265.226562 91.589844 L 265.226562 162.839844 L 195.476562 162.839844 Z M 195.476562 91.589844 " clip-rule="nonzero"/></clipPath><clipPath id="5966146e96"><path d="M 212.726562 91.589844 L 248.226562 91.589844 C 257.753906 91.589844 265.472656 99.308594 265.472656 108.835938 L 265.472656 145.71875 C 265.472656 155.246094 257.753906 162.96875 248.226562 162.96875 L 212.726562 162.96875 C 203.199219 162.96875 195.476562 155.246094 195.476562 145.71875 L 195.476562 108.835938 C 195.476562 99.308594 203.199219 91.589844 212.726562 91.589844 Z M 212.726562 91.589844 " clip-rule="nonzero"/></clipPath><clipPath id="f3aa1a6729"><path d="M 109.515625 175.476562 L 179.265625 175.476562 L 179.265625 246.726562 L 109.515625 246.726562 Z M 109.515625 175.476562 " clip-rule="nonzero"/></clipPath><clipPath id="c0430dda2b"><path d="M 126.761719 175.476562 L 162.261719 175.476562 C 171.789062 175.476562 179.511719 183.199219 179.511719 192.726562 L 179.511719 229.609375 C 179.511719 239.132812 171.789062 246.855469 162.261719 246.855469 L 126.761719 246.855469 C 117.238281 246.855469 109.515625 239.132812 109.515625 229.609375 L 109.515625 192.726562 C 109.515625 183.199219 117.238281 175.476562 126.761719 175.476562 Z M 126.761719 175.476562 " clip-rule="nonzero"/></clipPath></defs><g clip-path="url(#28bd12ad6b)"><g clip-path="url(#7478d8dfb6)"><g clip-path="url(#542b5bd233)"><path fill="#ffffff" d="M 228.449219 246.859375 C 207.988281 246.859375 191.417969 230.175781 191.417969 209.828125 C 191.417969 189.484375 207.988281 172.796875 228.449219 172.796875 C 248.90625 172.796875 265.480469 189.371094 265.480469 209.828125 C 265.480469 230.289062 248.792969 246.859375 228.449219 246.859375 Z M 228.449219 175.085938 C 209.246094 175.085938 193.703125 190.628906 193.703125 209.828125 C 193.703125 229.03125 209.246094 244.574219 228.449219 244.574219 C 247.648438 244.574219 263.191406 229.03125 263.191406 209.828125 C 263.191406 190.628906 247.535156 175.085938 228.449219 175.085938 Z M 228.449219 175.085938 " fill-opacity="1" fill-rule="nonzero"/></g></g></g><g clip-path="url(#384b23fc9c)"><g clip-path="url(#96f803e44c)"><g clip-path="url(#258d172ee6)"><path stroke-linecap="butt" transform="matrix(0.75, 0, 0, 0.75, 191.416281, 172.798743)" fill="none" stroke-linejoin="miter" d="M 0.00225069 49.372516 C 0.00225069 76.643353 22.10642 98.747522 49.377257 98.747522 C 76.642886 98.747522 98.752263 76.643353 98.752263 49.372516 C 98.752263 22.106887 76.642886 -0.00249074 49.377257 -0.00249074 C 22.10642 -0.00249074 0.00225069 22.106887 0.00225069 49.372516 Z M 0.00225069 49.372516 " stroke="#0658f6" stroke-width="36" stroke-opacity="1" stroke-miterlimit="4"/></g></g></g><g clip-path="url(#56ccd67a23)"><g clip-path="url(#d8d0e53151)"><path stroke-linecap="butt" transform="matrix(0.75, 0, 0, 0.75, 109.514683, 91.588676)" fill="none" stroke-linejoin="miter" d="M 22.996049 0.00155649 L 70.329386 0.00155649 C 83.032512 0.00155649 93.329387 10.293224 93.329387 22.99635 L 93.329387 72.173436 C 93.329387 84.876562 83.032512 95.173438 70.329386 95.173438 L 22.996049 95.173438 C 10.298132 95.173438 0.00125612 84.876562 0.00125612 72.173436 L 0.00125612 22.99635 C 0.00125612 10.293224 10.298132 0.00155649 22.996049 0.00155649 Z M 22.996049 0.00155649 " stroke="#000000" stroke-width="40" stroke-opacity="1" stroke-miterlimit="4"/></g></g><g clip-path="url(#b212d57585)"><g clip-path="url(#5966146e96)"><path stroke-linecap="butt" transform="matrix(0.75, 0, 0, 0.75, 195.47781, 91.588676)" fill="none" stroke-linejoin="miter" d="M 22.998338 0.00155649 L 70.331675 0.00155649 C 83.0348 0.00155649 93.326468 10.293224 93.326468 22.99635 L 93.326468 72.173436 C 93.326468 84.876562 83.0348 95.173438 70.331675 95.173438 L 22.998338 95.173438 C 10.295212 95.173438 -0.00166342 84.876562 -0.00166342 72.173436 L -0.00166342 22.99635 C -0.00166342 10.293224 10.295212 0.00155649 22.998338 0.00155649 Z M 22.998338 0.00155649 " stroke="#000000" stroke-width="40" stroke-opacity="1" stroke-miterlimit="4"/></g></g><g clip-path="url(#f3aa1a6729)"><g clip-path="url(#c0430dda2b)"><path stroke-linecap="butt" transform="matrix(0.75, 0, 0, 0.75, 109.514683, 175.478074)" fill="none" stroke-linejoin="miter" d="M 22.996049 -0.00201544 L 70.329386 -0.00201544 C 83.032512 -0.00201544 93.329387 10.29486 93.329387 22.997986 L 93.329387 72.175073 C 93.329387 84.87299 83.032512 95.169866 70.329386 95.169866 L 22.996049 95.169866 C 10.298132 95.169866 0.00125612 84.87299 0.00125612 72.175073 L 0.00125612 22.997986 C 0.00125612 10.29486 10.298132 -0.00201544 22.996049 -0.00201544 Z M 22.996049 -0.00201544 " stroke="#000000" stroke-width="40" stroke-opacity="1" stroke-miterlimit="4"/></g></g></svg>