<svg xmlns="http://www.w3.org/2000/svg" xmlns:xlink="http://www.w3.org/1999/xlink" width="40" zoomAndPan="magnify" viewBox="0 0 30 30.000001" height="40" preserveAspectRatio="xMidYMid meet" version="1.0"><defs><clipPath id="045e940186"><path d="M 2.226562 16.257812 L 13.839844 16.257812 L 13.839844 27.144531 L 2.226562 27.144531 Z M 2.226562 16.257812 " clip-rule="nonzero"/></clipPath><clipPath id="46c9857100"><path d="M 4.402344 16.257812 L 11.367188 16.257812 C 12.566406 16.257812 13.542969 17.230469 13.542969 18.433594 L 13.542969 25.105469 C 13.542969 26.308594 12.566406 27.28125 11.367188 27.28125 L 4.402344 27.28125 C 3.203125 27.28125 2.226562 26.308594 2.226562 25.105469 L 2.226562 18.433594 C 2.226562 17.230469 3.203125 16.257812 4.402344 16.257812 Z M 4.402344 16.257812 " clip-rule="nonzero"/></clipPath><clipPath id="27531bfead"><path d="M 15.726562 16.402344 L 25.886719 16.402344 L 25.886719 26.566406 L 15.726562 26.566406 Z M 15.726562 16.402344 " clip-rule="nonzero"/></clipPath><clipPath id="095d1bce57"><path d="M 15 21.484375 C 15 24.691406 17.601562 27.289062 20.804688 27.289062 C 24.011719 27.289062 26.613281 24.691406 26.613281 21.484375 C 26.613281 18.277344 24.011719 15.675781 20.804688 15.675781 C 17.601562 15.675781 15 18.277344 15 21.484375 Z M 15 21.484375 " clip-rule="nonzero"/></clipPath><clipPath id="85f52744cc"><path d="M 20.804688 16.546875 C 23.53125 16.546875 25.742188 18.757812 25.742188 21.484375 C 25.742188 24.210938 23.53125 26.417969 20.804688 26.417969 C 18.082031 26.417969 15.871094 24.210938 15.871094 21.484375 C 15.871094 18.757812 18.082031 16.546875 20.804688 16.546875 Z M 20.804688 16.546875 " clip-rule="nonzero"/></clipPath><clipPath id="9ebfdacb54"><path d="M 15 15.675781 L 26.613281 15.675781 L 26.613281 27.289062 L 15 27.289062 Z M 15 15.675781 " clip-rule="nonzero"/></clipPath><clipPath id="9daec9eba9"><path d="M 15 21.484375 C 15 24.691406 17.601562 27.289062 20.804688 27.289062 C 24.011719 27.289062 26.613281 24.691406 26.613281 21.484375 C 26.613281 18.277344 24.011719 15.675781 20.804688 15.675781 C 17.601562 15.675781 15 18.277344 15 21.484375 Z M 15 21.484375 " clip-rule="nonzero"/></clipPath><clipPath id="8956e352d3"><path d="M 15 21.484375 C 15 24.691406 17.601562 27.289062 20.804688 27.289062 C 24.011719 27.289062 26.613281 24.691406 26.613281 21.484375 C 26.613281 18.277344 24.011719 15.675781 20.804688 15.675781 C 17.601562 15.675781 15 18.277344 15 21.484375 Z M 15 21.484375 " clip-rule="nonzero"/></clipPath><clipPath id="df2d6db985"><path d="M 2.226562 2.902344 L 13.839844 2.902344 L 13.839844 13.789062 L 2.226562 13.789062 Z M 2.226562 2.902344 " clip-rule="nonzero"/></clipPath><clipPath id="77c7ebfdbb"><path d="M 4.402344 2.902344 L 11.367188 2.902344 C 12.566406 2.902344 13.542969 3.878906 13.542969 5.078125 L 13.542969 11.75 C 13.542969 12.953125 12.566406 13.925781 11.367188 13.925781 L 4.402344 13.925781 C 3.203125 13.925781 2.226562 12.953125 2.226562 11.75 L 2.226562 5.078125 C 2.226562 3.878906 3.203125 2.902344 4.402344 2.902344 Z M 4.402344 2.902344 " clip-rule="nonzero"/></clipPath><clipPath id="5abb808b27"><path d="M 15.726562 2.902344 L 27.339844 2.902344 L 27.339844 13.789062 L 15.726562 13.789062 Z M 15.726562 2.902344 " clip-rule="nonzero"/></clipPath><clipPath id="8d4be8d093"><path d="M 17.902344 2.902344 L 24.867188 2.902344 C 26.066406 2.902344 27.042969 3.878906 27.042969 5.078125 L 27.042969 11.75 C 27.042969 12.953125 26.066406 13.925781 24.867188 13.925781 L 17.902344 13.925781 C 16.703125 13.925781 15.726562 12.953125 15.726562 11.75 L 15.726562 5.078125 C 15.726562 3.878906 16.703125 2.902344 17.902344 2.902344 Z M 17.902344 2.902344 " clip-rule="nonzero"/></clipPath></defs><g clip-path="url(#045e940186)"><g clip-path="url(#46c9857100)"><path stroke-linecap="butt" transform="matrix(0.725806, 0, 0, 0.725806, 2.228194, 16.258066)" fill="none" stroke-linejoin="miter" d="M 2.995496 -0.000349702 L 12.591503 -0.000349702 C 14.24376 -0.000349702 15.589246 1.339754 15.589246 2.997393 L 15.589246 12.189755 C 15.589246 13.847393 14.24376 15.187498 12.591503 15.187498 L 2.995496 15.187498 C 1.343239 15.187498 -0.00224728 13.847393 -0.00224728 12.189755 L -0.00224728 2.997393 C -0.00224728 1.339754 1.343239 -0.000349702 2.995496 -0.000349702 Z M 2.995496 -0.000349702 " stroke="#000000" stroke-width="8" stroke-opacity="1" stroke-miterlimit="4"/></g></g><g clip-path="url(#27531bfead)"><g clip-path="url(#095d1bce57)"><g clip-path="url(#85f52744cc)"><path fill="#ffffff" d="M 20.804688 27.289062 C 17.597656 27.289062 15 24.675781 15 21.484375 C 15 18.292969 17.597656 15.675781 20.804688 15.675781 C 24.015625 15.675781 26.613281 18.277344 26.613281 21.484375 C 26.613281 24.691406 23.996094 27.289062 20.804688 27.289062 Z M 20.804688 16.035156 C 17.796875 16.035156 15.359375 18.472656 15.359375 21.484375 C 15.359375 24.496094 17.796875 26.933594 20.804688 26.933594 C 23.816406 26.933594 26.253906 24.496094 26.253906 21.484375 C 26.253906 18.472656 23.800781 16.035156 20.804688 16.035156 Z M 20.804688 16.035156 " fill-opacity="1" fill-rule="nonzero"/></g></g></g><g clip-path="url(#9ebfdacb54)"><g clip-path="url(#9daec9eba9)"><g clip-path="url(#8956e352d3)"><path stroke-linecap="butt" transform="matrix(0.725806, 0, 0, 0.725806, 14.999999, 15.677421)" fill="none" stroke-linejoin="miter" d="M 0.000000833333 8.000692 C 0.000000833333 12.419268 3.584376 15.998262 7.99757 15.998262 C 12.416147 15.998262 16.000522 12.419268 16.000522 8.000692 C 16.000522 3.582116 12.416147 -0.00225943 7.99757 -0.00225943 C 3.584376 -0.00225943 0.000000833333 3.582116 0.000000833333 8.000692 Z M 0.000000833333 8.000692 " stroke="#2958b6" stroke-width="24" stroke-opacity="1" stroke-miterlimit="4"/></g></g></g><g clip-path="url(#df2d6db985)"><g clip-path="url(#77c7ebfdbb)"><path stroke-linecap="butt" transform="matrix(0.725806, 0, 0, 0.725806, 2.228194, 2.903228)" fill="none" stroke-linejoin="miter" d="M 2.995496 -0.00121791 L 12.591503 -0.00121791 C 14.24376 -0.00121791 15.589246 1.344268 15.589246 2.996525 L 15.589246 12.188886 C 15.589246 13.846525 14.24376 15.186629 12.591503 15.186629 L 2.995496 15.186629 C 1.343239 15.186629 -0.00224728 13.846525 -0.00224728 12.188886 L -0.00224728 2.996525 C -0.00224728 1.344268 1.343239 -0.00121791 2.995496 -0.00121791 Z M 2.995496 -0.00121791 " stroke="#000000" stroke-width="8" stroke-opacity="1" stroke-miterlimit="4"/></g></g><g clip-path="url(#5abb808b27)"><g clip-path="url(#8d4be8d093)"><path stroke-linecap="butt" transform="matrix(0.725806, 0, 0, 0.725806, 15.728193, 2.903228)" fill="none" stroke-linejoin="miter" d="M 2.995497 -0.00121791 L 12.591504 -0.00121791 C 14.243761 -0.00121791 15.589247 1.344268 15.589247 2.996525 L 15.589247 12.188886 C 15.589247 13.846525 14.243761 15.186629 12.591504 15.186629 L 2.995497 15.186629 C 1.34324 15.186629 -0.00224613 13.846525 -0.00224613 12.188886 L -0.00224613 2.996525 C -0.00224613 1.344268 1.34324 -0.00121791 2.995497 -0.00121791 Z M 2.995497 -0.00121791 " stroke="#000000" stroke-width="8" stroke-opacity="1" stroke-miterlimit="4"/></g></g></svg>