<svg xmlns="http://www.w3.org/2000/svg" xmlns:xlink="http://www.w3.org/1999/xlink" width="500" zoomAndPan="magnify" viewBox="0 0 375 374.999991" height="500" preserveAspectRatio="xMidYMid meet" version="1.0"><defs><clipPath id="12f26fb722"><path d="M 142 112.5 L 225 112.5 L 225 195 L 142 195 Z M 142 112.5 " clip-rule="nonzero"/></clipPath><clipPath id="b9bb9697be"><path d="M 116.292969 205 L 250.542969 205 L 250.542969 272.25 L 116.292969 272.25 Z M 116.292969 205 " clip-rule="nonzero"/></clipPath></defs><g clip-path="url(#12f26fb722)"><path fill="#000000" d="M 183.417969 194.953125 C 160.761719 194.953125 142.113281 176.339844 142.113281 153.726562 C 142.113281 131.109375 160.761719 112.5 183.417969 112.5 C 206.078125 112.5 224.722656 131.109375 224.722656 153.726562 C 224.699219 176.332031 206.070312 194.925781 183.417969 194.953125 Z M 183.417969 117.652344 C 163.59375 117.652344 147.277344 133.9375 147.277344 153.726562 C 147.277344 173.515625 163.59375 189.796875 183.417969 189.796875 C 203.246094 189.796875 219.5625 173.515625 219.5625 153.726562 C 219.539062 133.945312 203.238281 117.675781 183.417969 117.652344 Z M 183.417969 117.652344 " fill-opacity="1" fill-rule="nonzero"/></g><g clip-path="url(#b9bb9697be)"><path fill="#000000" d="M 247.957031 272.25 L 118.878906 272.25 C 117.460938 272.25 116.296875 271.089844 116.296875 269.671875 C 116.335938 234.351562 145.445312 205.296875 180.835938 205.257812 L 186 205.257812 C 221.390625 205.296875 250.5 234.351562 250.539062 269.671875 C 250.539062 271.089844 249.375 272.25 247.957031 272.25 Z M 121.515625 267.097656 L 245.320312 267.097656 C 243.910156 235.601562 217.585938 210.449219 186 210.410156 L 180.835938 210.410156 C 149.25 210.449219 122.925781 235.601562 121.515625 267.097656 Z M 121.515625 267.097656 " fill-opacity="1" fill-rule="nonzero"/></g></svg>