<svg viewBox="114.97499999999991 122.42696629213481 792.0500000000002 688.6516853932586" xmlns="http://www.w3.org/2000/svg" overflow="visible" xmlns:xlink="http://www.w3.org/1999/xlink" width="792.0500000000002px" height="688.6516853932586px"><g id="Master/Scenes/Communication" stroke="none" stroke-width="1" fill="none" fill-rule="evenodd"><g id="Background" transform="translate(271.000000, 173.000000) scale(1 1)" fill="#1940aa"><g id="Background/6" stroke="none" stroke-width="1" fill="none" fill-rule="evenodd"><path d="M336.490489,79 C392.683486,79 454.114018,98.5034101 490.642814,143.289018 C507.520806,163.982966 515.973197,188.275279 516.000013,212.420447 C516.013383,239.682416 505.283802,266.757108 483.784456,288.32055 C463.901467,308.254337 438.510868,321.750287 412.578139,332.829599 L409.716984,334.045562 C406.795592,335.298619 403.822136,336.702569 401.979776,339.247458 C400.592976,341.147282 399.98931,343.486717 399.465214,345.773946 L399.367706,346.202069 C393.903791,370.213469 383.869423,390.720141 370.474192,408.016375 L370.462136,408.016375 C346.603889,438.836579 312.004006,459.450265 273.452529,471.516161 C243.929439,480.760884 212.075578,485 180.919609,485 C128.516124,485 80.4138471,472.720075 42.7330607,452.228118 L42.7196655,452.213403 C36.156002,448.668545 29.9004289,444.842773 24.006527,440.802972 C-14.3708115,414.504135 -38,378.587361 -38,338.991961 C-38,263.50654 47.8902249,201.397944 158.052609,193.774492 C170.336037,128.908932 245.536867,79 336.490489,79 Z M94.5006723,82 C113.554025,82 129,92.521317 129,105.5 C129,118.480037 113.554025,129 94.5006723,129 C75.4459752,129 60,118.480037 60,105.5 C60,92.521317 75.4459752,82 94.5006723,82 Z" id="Shape" fill-opacity=".04" fill="#1940aa"/></g></g><g id="Group-88" transform="translate(123.000000, 132.000000)"><path d="M378.3417,125.7036 C377.0177,125.3156 375.5837,125.1836 374.0987,125.3646 C369.6317,125.9066 365.9137,129.3986 365.1377,133.8316 C364.5077,137.4286 365.7227,140.7676 367.9927,143.0596 C368.9327,144.0086 369.1807,145.4396 368.5707,146.6276 C365.4107,152.7916 360.5887,160.7016 355.5727,172.0976 C340.9237,205.3766 331.0197,241.0646 290.5777,250.3496 C255.5227,258.3986 232.3097,224.9096 248.7067,193.8996 C262.6747,167.4846 292.5427,161.3596 311.3467,140.3846 C328.4777,121.2736 330.9357,91.8066 355.4977,78.4516 C362.5867,74.5976 370.8797,73.2456 378.6597,75.3876 C396.9247,80.4146 399.5447,99.8666 390.9797,114.0596 C387.8097,119.3126 384.3287,122.8836 381.6437,125.0106 C380.7137,125.7466 379.4817,126.0376 378.3417,125.7036" id="Fill-1" fill="#1940aa"/><path d="M391.381492,96.9014945 C392.042359,96.4019483 392.983059,96.5327247 393.482606,97.1935917 L394.898728,99.0474546 L397.739459,102.724844 C401.428917,107.530217 403.303986,110.201824 405.242832,113.560742 C408.401497,119.028235 410.835988,125.093823 412.54674,131.597848 C412.856142,132.775183 413.14266,133.973117 413.407978,135.195438 C415.22092,143.561977 415.031167,149.091586 411.017748,152.922101 C407.677634,156.110593 401.417696,158.52322 393.001306,160.377147 C388.676237,161.329856 384.052583,162.070822 379.430395,162.626604 L378.073698,162.784255 C377.189198,162.883421 376.345805,162.970814 375.550594,163.047015 L373.93138,163.192312 L373.253079,163.245415 C372.426687,163.303448 371.709719,162.680571 371.651685,161.854179 C371.593652,161.027787 372.216529,160.310819 373.042921,160.252785 L373.916301,160.183034 C374.154498,160.162767 374.412574,160.139983 374.689496,160.1146 L375.858601,160.002526 C376.862424,159.902201 377.938301,159.784407 379.072248,159.648059 C383.605041,159.103026 388.13637,158.376855 392.35595,157.447384 L393.421609,157.206636 C400.790945,155.499134 406.250918,153.325081 408.946354,150.752002 C411.911605,147.921887 412.073533,143.203109 410.476135,135.831282 C410.219979,134.651171 409.943514,133.495267 409.645342,132.360666 C408.000496,126.107202 405.665489,120.289482 402.64489,115.060976 L402.326285,114.514595 C400.518973,111.447275 398.64677,108.820892 395.028611,104.120902 L392.3419,100.644124 C391.993433,100.191089 391.687358,99.7908903 391.38793,99.3966284 L391.089394,99.0026083 C390.589848,98.3417413 390.720625,97.4010406 391.381492,96.9014945 Z" id="Stroke-3" fill="#1940aa" fill-rule="nonzero"/><path d="M387.415513,159.405311 C387.566171,158.590698 388.348677,158.052456 389.163289,158.203113 C389.929984,158.344908 390.451865,159.046403 390.385006,159.807589 L390.365487,159.950889 L385.319487,187.234889 C385.168829,188.049502 384.386323,188.587744 383.571711,188.437087 C382.805016,188.295292 382.283135,187.593797 382.349994,186.832611 L382.369513,186.689311 L387.415513,159.405311 Z" id="Stroke-5" fill="#1940aa" fill-rule="nonzero"/><path d="M489.246396,82.1203241 C489.744695,81.4927852 490.639986,81.3735574 491.281815,81.8244683 L491.399029,81.9157105 L506.606029,94.9907105 C507.150666,95.4589904 507.282078,96.2410562 506.939426,96.8565799 L506.858722,96.9857537 L460.251722,163.860754 C460.188484,163.951492 460.115503,164.034817 460.034188,164.109288 L459.906141,164.214175 L393.924141,212.433175 C393.255283,212.921969 392.31682,212.775999 391.828025,212.107141 C391.367983,211.477628 391.470224,210.609295 392.041475,210.101805 L392.154059,210.011025 L457.932,161.941 L503.622,96.381 L490.625,85.206 L447.167804,139.936876 C447.036156,140.102668 446.871295,140.238237 446.684468,140.335269 L446.540404,140.400688 L401.749404,157.953688 C400.97809,158.255956 400.10778,157.875719 399.805512,157.104404 C399.521025,156.378462 399.841109,155.564827 400.5228,155.219614 L400.654796,155.160512 L445.07,137.754 L489.246396,82.1203241 Z" id="Stroke-7" fill="#1940aa" fill-rule="nonzero"/><path d="M504.222901,49.7312002 C504.587776,48.7542142 505.80147,48.4499817 506.582588,49.0985187 L506.686302,49.1928874 L509.284454,51.7790391 C511.442731,53.927962 512.315938,57.0432072 511.604542,59.9885074 L511.528109,60.2824288 L509.622,67.125 L510.8589,68.2374768 C515.445847,72.3609147 516.247229,79.2321414 512.779422,84.293163 L512.592961,84.5578365 L504.829961,95.2768365 C504.344041,95.9477858 503.406213,96.0977815 502.735263,95.6118612 C502.103782,95.1545245 501.933768,94.2968818 502.321066,93.6381904 L502.400239,93.5171635 L510.163173,82.7982538 C512.887631,79.0357874 512.401075,73.8548094 509.064933,70.664754 L508.852717,70.4679987 L506.924717,68.7329987 C506.536659,68.3837868 506.360565,67.8607395 506.451599,67.3534036 L506.483091,67.2155712 L508.63817,59.4772864 C509.168526,57.5743802 508.674164,55.5374945 507.345868,54.0904526 L507.167898,53.9051126 L506.219,52.961 L494.065299,85.5037998 C493.79251,86.2342188 493.011041,86.6263441 492.273033,86.4283084 L492.1353,86.3841993 C491.404881,86.1114097 491.012756,85.3299409 491.210792,84.5919326 L491.254901,84.4542002 L504.222901,49.7312002 Z" id="Stroke-9" fill="#1940aa" fill-rule="nonzero"/><path d="M356.787684,181.813859 C362.118487,180.348358 366.092902,179.888093 371.23129,180.832945 L371.749358,180.937763 C372.369399,181.070184 373.051819,181.241429 373.877212,181.486789 C375.480403,181.963361 377.13486,182.589109 378.792463,183.389392 C383.220703,185.527323 387.007633,188.569491 389.727601,192.686219 L390.014924,193.131417 C390.147254,193.341747 390.364176,193.713972 390.637376,194.228839 C391.086018,195.074338 391.533293,196.022866 391.950644,197.055742 C392.654963,198.798817 393.202626,200.605552 393.532322,202.438071 L393.621169,202.963922 C394.923819,211.23162 393.487469,228.890285 390.130174,252.859395 C389.067704,260.444804 387.86919,268.237734 386.605818,275.938041 L386.06061,279.231627 C385.795835,280.817175 385.53653,282.349805 385.284387,283.822324 L384.40037,288.908921 L384.105,290.571 L470.025909,298.957284 C470.69016,299.022071 471.231711,299.517936 471.354637,300.173921 C472.354205,305.508014 472.254528,311.284509 470.112821,317.549845 C467.823502,324.2093 464.065485,329.025665 459.695024,332.683488 C459.468965,332.872687 459.192168,332.991082 458.899212,333.023884 L449.614211,334.070992 C436.004228,335.617272 422.339436,337.222023 407.430591,339.045945 L372.925276,343.341266 C365.983298,344.190767 361.500967,344.690611 357.926727,345.001028 L356.338467,345.131064 C348.553288,345.725867 344.854578,345.32143 341.126027,343.564095 L340.811018,343.412583 C331.300183,338.723682 326.506979,328.239985 325.085704,311.779311 L324.976535,310.425363 C324.115277,299.089962 324.55797,288.794514 326.588698,263.998072 L327.822316,249.074895 C327.998039,246.877158 328.147234,244.936041 328.290166,242.986381 L328.381388,241.729243 C328.884,234.731809 329.221399,228.62899 329.401032,222.882335 C329.426915,222.054312 330.119142,221.404049 330.947165,221.429932 C331.775188,221.455815 332.425451,222.148042 332.399568,222.976065 L332.333342,224.920263 C332.153052,229.81692 331.86212,234.998754 331.456362,240.779868 L331.22028,244.043707 C331.001936,246.981368 330.76309,249.98314 330.435217,253.94594 L329.525872,264.889399 C327.555495,289.037096 327.130707,299.170885 327.967925,310.197956 L328.0255,310.933271 C329.305038,326.799532 333.681262,336.552797 342.134602,340.720352 L342.40504,340.850403 C345.581631,342.347589 348.820679,342.700399 356.147534,342.137002 L357.67017,342.012016 C360.24699,341.788168 363.315491,341.463122 367.470968,340.975193 L402.965959,336.571447 L411.104833,335.575728 C425.138047,333.87044 438.135431,332.351675 451.13183,330.879591 L458.11,330.093 L458.141641,330.067005 C461.845577,326.876437 465.040679,322.735437 467.07536,317.14129 L467.274936,316.577013 C469.031713,311.437744 469.281102,306.652109 468.648601,302.198681 L468.593,301.831 L382.194566,293.399104 C381.3212,293.313848 380.707207,292.500377 380.864636,291.637096 L381.40513,288.61906 L382.029288,285.048534 C382.37291,283.061596 382.731891,280.951325 383.101584,278.737492 C384.560908,269.998629 385.948912,261.083825 387.159176,252.443255 L387.575272,249.431591 C390.650606,226.852793 391.893937,210.230951 390.580003,202.970807 C390.289181,201.354362 389.80048,199.742144 389.169132,198.179659 C388.855356,197.403115 388.522981,196.679734 388.188298,196.02181 L387.987341,195.635008 C387.750189,195.188076 387.57017,194.879177 387.476324,194.730013 C385.06696,190.907337 381.602022,188.077171 377.488137,186.091008 C375.983102,185.364385 374.477999,184.795126 373.022388,184.362424 C372.067147,184.078464 371.3361,183.907466 370.678038,183.781468 C366.085205,182.93697 362.516427,183.35026 357.577807,184.707936 C355.072711,185.387111 352.630449,186.321891 350.27086,187.481431 C349.527357,187.846801 348.628438,187.540263 348.263069,186.79676 C347.897699,186.053257 348.204237,185.154338 348.94774,184.788969 C351.475686,183.546695 354.097373,182.543241 356.787684,181.813859 Z" id="Stroke-11" fill="#1940aa" fill-rule="nonzero"/><path d="M498.227833,288.871878 C498.997282,288.144331 500.241922,288.426354 500.64023,289.377547 L500.687275,289.505383 L502.218528,294.299178 C503.624115,298.708011 502.472471,303.522432 499.248021,306.814536 L499.014184,307.047072 L494.832222,311.099035 C493.479998,312.409316 492.407984,313.976944 491.679122,315.707127 L491.517043,316.109243 C489.386375,321.637493 484.34424,325.496311 478.473216,326.123312 L478.228,326.146 L462.677929,329.437305 C461.915124,329.598718 461.165099,329.149365 460.936519,328.420238 L460.899895,328.280329 C460.738482,327.517524 461.187835,326.767499 461.916962,326.538919 L462.056871,326.502295 L477.689871,323.194295 L477.873879,323.167145 C482.639533,322.763736 486.770898,319.734359 488.596711,315.332956 L488.717606,315.030749 C489.546376,312.878621 490.806035,310.918829 492.417628,309.270093 L492.744616,308.944528 L496.926794,304.892355 C499.434477,302.46343 500.396404,298.858384 499.451672,295.514452 L499.360525,295.211217 L498.555,292.69 L489.252967,301.486722 C489.070895,301.658879 488.849208,301.782124 488.608596,301.846233 L488.462123,301.87752 L470.679123,304.75652 C469.861344,304.888916 469.091075,304.333302 468.95868,303.515523 C468.834072,302.745848 469.318912,302.018259 470.058171,301.824945 L470.199677,301.79508 L487.525,298.99 L498.227833,288.871878 Z" id="Stroke-13" fill="#1940aa" fill-rule="nonzero"/><path d="M260.094278,246.243333 C260.383491,245.46703 261.247263,245.072165 262.023567,245.361378 C262.754205,245.633579 263.146961,246.414731 262.94952,247.152899 L262.905522,247.290667 L222.086507,356.856708 C218.308812,366.995858 223.728001,378.260563 233.989002,381.552664 C254.638175,388.175354 276.475029,391.666692 297.985401,390.182558 C325.880952,388.25787 350.612696,378.051016 370.838992,357.818389 L371.647,357 L371.6479,341.805 C371.6479,341.025304 372.242788,340.384551 373.00344,340.311867 L373.1479,340.305 C373.927596,340.305 374.568349,340.899888 374.641033,341.66054 L374.6479,341.805 L374.6479,357.612 C374.6479,358.002156 374.495883,358.37696 374.224104,358.656885 C353.228667,380.281632 327.359844,391.162964 298.191899,393.175442 C276.257305,394.688846 254.056514,391.139321 233.072653,384.409289 C221.296535,380.631083 215.027858,367.807576 219.147263,356.161863 L219.275278,355.809333 L260.094278,246.243333 Z" id="Stroke-15" fill="#1940aa" fill-rule="nonzero"/><path d="M225.586833,379.112211 C225.800672,378.311858 226.622837,377.836394 227.423189,378.050233 C228.223542,378.264072 228.699006,379.086237 228.485167,379.886589 C224.891268,393.337782 224.95809,407.099316 230.38459,420.17282 C236.858381,435.784266 249.39525,446.448762 265.862714,453.058087 C271.818044,455.448298 277.93075,457.151103 283.919971,458.277265 C286.127651,458.692378 288.199995,459.005587 290.102287,459.231083 L291.210351,459.354604 C292.020232,459.438811 292.707548,459.496064 293.262807,459.531463 C302.473782,460.120987 309.994385,458.99311 323.212391,455.370783 C350.973253,447.759775 379.900954,436.286564 410.949052,418.960547 C411.957595,418.397741 413.197132,419.138048 413.179832,420.292868 L412.915053,436.514204 C412.662491,450.725525 412.34795,465.247264 411.872081,485.023214 L410.180818,553.268168 C409.65121,575.187309 409.31734,590.671841 409.049973,606.152755 L408.845,618.809 L433.803,632.216 L434.033666,630.769296 C436.840409,613.169045 439.661116,596.630767 442.842643,578.909054 L445.533858,564.13099 C448.352616,548.794324 452.436896,526.769376 452.639949,525.662533 L453.875037,518.896295 C456.993554,501.719207 459.415741,487.614507 461.769351,472.706484 C461.898539,471.888192 462.666624,471.329563 463.484916,471.458751 C464.303208,471.587939 464.861837,472.356024 464.732649,473.174316 L464.187108,476.607784 C461.815368,491.439355 459.327055,505.762136 456.094052,523.454798 L446.49993,575.528353 L446.436093,575.881496 C442.777779,596.135829 439.612561,614.67699 436.435599,634.772629 C436.274261,635.793165 435.153595,636.348838 434.243604,635.859512 L406.622888,621.020202 C406.169734,620.776851 405.875889,620.321012 405.836522,619.815147 L405.832166,619.676065 L406.096878,603.448626 C406.406578,586.013839 406.809636,568.11272 407.4897,540.605811 L409.043268,477.804025 C409.494574,458.663176 409.787116,444.466858 410.030203,429.775847 L410.14,422.838 L409.530535,423.17431 C379.827855,439.474644 352.025465,450.474303 325.297885,457.907182 L324.00545,458.264061 L322.527309,458.665077 C309.913024,462.050998 302.316215,463.11704 293.071565,462.525361 L292.401985,462.478061 C290.092656,462.299744 287.015866,461.911964 283.365592,461.225597 C277.194037,460.065151 270.894993,458.310438 264.745286,455.842213 C247.588014,448.956029 234.431972,437.764832 227.613604,421.322445 C221.905489,407.570475 221.835481,393.152718 225.586833,379.112211 Z" id="Stroke-17" fill="#1940aa" fill-rule="nonzero"/><path d="M445.178535,331.627786 C445.891133,331.311352 446.718175,331.595 447.09331,332.260694 L447.158214,332.389935 L533.354214,526.499935 C533.659635,527.18773 533.406747,527.987209 532.780806,528.379229 L532.659115,528.447832 L506.303115,541.748832 C505.655142,542.075842 504.873651,541.890167 504.439195,541.325477 L504.357074,541.207525 L392.973,363.871 L372.672318,357.078177 C371.932918,356.830763 371.514052,356.063295 371.686494,355.318891 L371.725823,355.179718 C371.973237,354.440318 372.740705,354.021452 373.485109,354.193894 L373.624282,354.233223 L394.433282,361.196223 C394.715301,361.290591 394.961806,361.466255 395.142691,361.69954 L395.227526,361.820875 L506.171,538.455 L530.033,526.412 L444.416386,333.607465 C444.099952,332.894867 444.3836,332.067825 445.049294,331.69269 L445.178535,331.627786 Z" id="Stroke-19" fill="#1940aa" fill-rule="nonzero"/><path d="M486.985131,255.93457 C487.334529,255.421431 487.9601,255.180524 488.556229,255.315783 L488.693135,255.353721 L514.130135,263.709721 C515.017102,264.001088 515.415241,265.014881 514.994539,265.82392 L514.925251,265.943624 L496.740251,294.345624 C496.29355,295.043298 495.36585,295.246752 494.668176,294.800051 C494.011541,294.379626 493.792693,293.533127 494.141636,292.853338 L494.213749,292.727976 L511.354,265.955 L488.829,258.555 L460.527869,300.12103 C460.08904,300.765511 459.23669,300.960329 458.567042,300.592298 L458.44377,300.516669 C457.799289,300.07784 457.604471,299.22549 457.972502,298.555842 L458.048131,298.43257 L486.985131,255.93457 Z" id="Stroke-21" fill="#1940aa" fill-rule="nonzero"/><path d="M507.6647,26.6785 C521.811791,26.6785 533.2797,38.1467371 533.2797,52.2935 C533.2797,60.7217378 529.176928,68.4639402 522.419873,73.2348475 C521.743132,73.7126691 520.807174,73.5514133 520.329353,72.8746726 C519.851531,72.1979319 520.012787,71.2619742 520.689527,70.7841525 C526.658735,66.5695157 530.2797,59.7365145 530.2797,52.2935 C530.2797,39.8035721 520.154918,29.6785 507.6647,29.6785 C495.175127,29.6785 485.0497,39.8039271 485.0497,52.2935 C485.0497,56.1431124 486.01174,59.8496756 487.821887,63.1501941 C488.220254,63.8765521 487.954364,64.7883212 487.228006,65.1866874 C486.501648,65.5850536 485.589879,65.3191638 485.191513,64.5928059 C483.140395,60.8529171 482.0497,56.6506677 482.0497,52.2935 C482.0497,38.1470729 493.518273,26.6785 507.6647,26.6785 Z" id="Stroke-23" fill="#1940aa" fill-rule="nonzero"/><path d="M407.3319,617.9213 L406.1739,642.8273 L460.7629,668.8343 L461.2279,664.9873 C462.2659,656.4123 458.3369,647.9923 451.0999,643.2783 L434.9539,632.7613 L407.3319,617.9213 Z" id="Fill-25" fill="#1940aa"/><path d="M405.833519,617.851633 L404.675519,642.757633 C404.647479,643.360705 404.983722,643.921812 405.528752,644.181473 L460.117752,670.188473 C461.043513,670.629519 462.129006,670.032343 462.252061,669.0143 L462.717061,665.1673 C463.823692,656.025336 459.635114,647.04777 451.918597,642.021425 L435.772592,631.504421 L435.663811,631.439927 L408.041811,616.599927 C407.069379,616.077485 405.884788,616.748936 405.833519,617.851633 Z M408.719,620.369 L434.187,634.052 L450.281208,644.535179 L450.616541,644.758156 C457.160487,649.19949 460.691839,656.933665 459.73877,664.807042 L459.523,666.582 L407.718,641.901 L408.719,620.369 Z" id="Stroke-27" fill="#1940aa" fill-rule="nonzero"/><path d="M505.0526,540.8783 L515.0746,556.3063 L570.5836,529.7013 C565.5936,521.8003 555.7456,518.4823 546.9916,521.7533 L531.4076,527.5773 L505.0526,540.8783 Z" id="Fill-29" fill="#1940aa"/><path d="M530.882496,526.172214 L530.731764,526.238179 L504.376764,539.539179 C503.579679,539.941456 503.308325,540.946689 503.794704,541.695427 L513.816704,557.123427 C514.227308,557.755517 515.04321,557.984736 515.722918,557.658958 L571.231918,531.053958 C572.041206,530.666073 572.331061,529.659104 571.851841,528.900323 C566.48246,520.398624 555.885841,516.828603 546.466569,520.348187 L530.882496,526.172214 Z M568.343,529.111 L515.614,554.384 L507.221,541.463 L532.01,528.953 L547.516704,523.158386 C555.018976,520.355103 563.391129,522.789407 568.244399,528.98262 L568.343,529.111 Z" id="Stroke-31" fill="#1940aa" fill-rule="nonzero"/><path d="M455.140302,356.957508 C455.333143,356.202036 456.068025,355.728323 456.823022,355.846026 L456.964692,355.875102 L468.137541,358.727064 C482.32573,362.347151 491.15347,376.446307 488.275163,390.75016 L488.184352,391.183663 L483.172352,414.199663 C482.996083,415.00912 482.196995,415.52242 481.387537,415.346152 C480.625695,415.180252 480.126193,414.46265 480.21702,413.70395 L480.241048,413.561337 L485.253047,390.545343 C488.028185,377.801161 480.318812,365.146825 467.77723,361.734464 L467.395708,361.633898 L456.222708,358.781898 C455.420019,358.577005 454.935409,357.760198 455.140302,356.957508 Z" id="Stroke-33" fill="#1940aa" fill-rule="nonzero"/><path d="M259.622273,322.009136 C260.445323,321.914902 261.188929,322.505723 261.283164,323.328773 C262.025963,329.816427 264.225636,336.327608 268.923138,342.439226 C273.10573,347.880313 278.431744,351.737564 284.453734,354.285324 C288.452677,355.97718 291.979324,356.824739 295.228557,357.252215 C296.049907,357.360274 296.628143,358.113708 296.520085,358.935057 C296.412026,359.756407 295.658592,360.334643 294.837243,360.226585 C291.341848,359.766722 287.564803,358.858986 283.284816,357.048226 C276.81131,354.309441 271.064601,350.147511 266.544612,344.267509 C261.471386,337.66706 259.10231,330.654435 258.302636,323.670027 C258.208402,322.846977 258.799223,322.103371 259.622273,322.009136 Z" id="Stroke-35" fill="#1940aa" fill-rule="nonzero"/><path d="M274.763639,288.393095 C275.012777,287.603018 275.855228,287.164501 276.645305,287.413639 C277.435382,287.662777 277.873899,288.505228 277.624761,289.295305 C275.661216,295.522175 275.018998,302.365895 276.821628,309.860505 C278.426149,316.533192 281.719848,322.224862 286.182421,327.003969 C289.145809,330.177553 292.021143,332.387349 294.815561,334.101616 C295.521704,334.534807 295.742975,335.458419 295.309784,336.164561 C294.876593,336.870704 293.952981,337.091975 293.246839,336.658784 C290.240835,334.814719 287.16137,332.448039 283.989729,329.051431 C279.192565,323.914 275.638702,317.772755 273.904793,310.561981 C271.957979,302.467914 272.649668,295.097001 274.763639,288.393095 Z" id="Stroke-37" fill="#1940aa" fill-rule="nonzero"/><polygon id="Fill-39" fill="#1940aa" points="193.297 491.817 382.992 491.817 382.992 460.247 193.297 460.247"/><path d="M507.6654,9.9726 C531.038167,9.9726 549.9864,28.9205126 549.9864,52.2936 C549.9864,67.4928116 541.905586,81.2896578 529.03074,88.833787 C528.315981,89.2526068 527.397033,89.0127 526.978213,88.2979403 C526.559393,87.5831805 526.7993,86.6642328 527.51406,86.245413 C539.47927,79.2342926 546.9864,66.4169309 546.9864,52.2936 C546.9864,30.5773782 529.381324,12.9726 507.6654,12.9726 C485.948625,12.9726 468.3434,30.5772292 468.3434,52.2936 C468.3434,60.7697564 471.030417,68.8372682 475.936848,75.5253372 C476.42687,76.193297 476.282623,77.1320265 475.614663,77.6220481 C474.946703,78.1120698 474.007974,77.9678225 473.517952,77.2998628 C468.237069,70.1013708 465.3434,61.4134043 465.3434,52.2936 C465.3434,28.9203523 484.291793,9.9726 507.6654,9.9726 Z" id="Stroke-41" fill="#1940aa" fill-rule="nonzero"/><path d="M77.3819,123.3134 L54.3239,123.3134 C23.7692907,123.3134 -1.0001,148.082155 -1.0001,178.6364 C-1.0001,209.190827 23.7694729,233.9604 54.3239,233.9604 L131.2059,233.9604 C132.034327,233.9604 132.7059,233.288827 132.7059,232.4604 L132.7059,178.6364 C132.7059,148.082155 107.936509,123.3134 77.3819,123.3134 Z M78.2471737,126.32041 C106.745854,126.78246 129.7059,150.028 129.7059,178.6364 L129.7059,230.9604 L54.3239,230.9604 C25.4263271,230.9604 1.9999,207.533973 1.9999,178.6364 C1.9999,149.739026 25.4261278,126.3134 54.3239,126.3134 L77.3819,126.3134 L78.2471737,126.32041 Z" id="Stroke-42" fill="#1940aa" fill-rule="nonzero"/><path d="M86.7438,162.3774 C87.5722271,162.3774 88.2438,163.048973 88.2438,163.8774 C88.2438,164.657096 87.6489119,165.297849 86.88826,165.370533 L86.7438,165.3774 L44.9618,165.3774 C44.1333729,165.3774 43.4618,164.705827 43.4618,163.8774 C43.4618,163.097704 44.0566881,162.456951 44.81734,162.384267 L44.9618,162.3774 L86.7438,162.3774 Z" id="Stroke-43" fill="#1940aa" fill-rule="nonzero"/><path d="M86.7438,188.3061 C87.5722271,188.3061 88.2438,188.977673 88.2438,189.8061 C88.2438,190.585796 87.6489119,191.226549 86.88826,191.299233 L86.7438,191.3061 L44.9618,191.3061 C44.1333729,191.3061 43.4618,190.634527 43.4618,189.8061 C43.4618,189.026404 44.0566881,188.385651 44.81734,188.312967 L44.9618,188.3061 L86.7438,188.3061 Z" id="Stroke-44" fill="#1940aa" fill-rule="nonzero"/><path d="M77.2294,312.0209 L154.1114,312.0209 C183.8374,312.0209 207.9354,287.9229 207.9354,258.1969 C207.9354,228.4709 183.8374,204.3739 154.1114,204.3739 L131.0534,204.3739 C101.3274,204.3739 77.2294,228.4709 77.2294,258.1969 L77.2294,312.0209 Z" id="Fill-45" fill="#1940aa"/><path d="M127.369,258.1967 C127.369,262.0877 124.215,265.2417 120.324,265.2417 C116.433,265.2417 113.279,262.0877 113.279,258.1967 C113.279,254.3057 116.433,251.1517 120.324,251.1517 C124.215,251.1517 127.369,254.3057 127.369,258.1967" id="Fill-46" fill="#6a8ed6"/><path d="M149.6268,258.1967 C149.6268,262.0877 146.4738,265.2417 142.5818,265.2417 C138.6908,265.2417 135.5378,262.0877 135.5378,258.1967 C135.5378,254.3057 138.6908,251.1517 142.5818,251.1517 C146.4738,251.1517 149.6268,254.3057 149.6268,258.1967" id="Fill-47" fill="#6a8ed6"/><path d="M171.8856,258.1967 C171.8856,262.0877 168.7316,265.2417 164.8406,265.2417 C160.9496,265.2417 157.7956,262.0877 157.7956,258.1967 C157.7956,254.3057 160.9496,251.1517 164.8406,251.1517 C168.7316,251.1517 171.8856,254.3057 171.8856,258.1967" id="Fill-48" fill="#6a8ed6"/><path d="M656.827,124.6633 L590.095,124.6633 C581.772416,124.6633 575.026,131.409029 575.026,139.7313 C575.026,148.052899 581.772745,154.7993 590.095,154.7993 L656.827,154.7993 C665.148427,154.7993 671.895,148.052727 671.895,139.7313 C671.895,131.409201 665.148755,124.6633 656.827,124.6633 Z M590.095,127.6633 L656.827,127.6633 C663.491935,127.6633 668.895,133.06609 668.895,139.7313 C668.895,146.395873 663.491573,151.7993 656.827,151.7993 L590.095,151.7993 C583.429565,151.7993 578.026,146.39601 578.026,139.7313 C578.026,133.065952 583.429202,127.6633 590.095,127.6633 Z" id="Stroke-49" fill="#1940aa" fill-rule="nonzero"/><path d="M656.827,287.0294 L590.095,287.0294 C581.772573,287.0294 575.026,293.775973 575.026,302.0984 C575.026,310.419999 581.772745,317.1664 590.095,317.1664 L656.827,317.1664 C665.148427,317.1664 671.895,310.419827 671.895,302.0984 C671.895,293.776145 665.148599,287.0294 656.827,287.0294 Z M590.095,290.0294 L656.827,290.0294 C663.49171,290.0294 668.895,295.432965 668.895,302.0984 C668.895,308.762973 663.491573,314.1664 656.827,314.1664 L590.095,314.1664 C583.429565,314.1664 578.026,308.76311 578.026,302.0984 C578.026,295.432827 583.429427,290.0294 590.095,290.0294 Z" id="Stroke-50" fill="#1940aa" fill-rule="nonzero"/><path d="M724.1132,153.2993 L702.4602,153.2993 C694.9672,153.2993 688.8922,147.2243 688.8922,139.7313 C688.8922,132.2373 694.9672,126.1633 702.4602,126.1633 L724.1132,126.1633 C731.6072,126.1633 737.6812,132.2373 737.6812,139.7313 C737.6812,147.2243 731.6072,153.2993 724.1132,153.2993" id="Fill-51" fill="#1940aa"/><path d="M724.1132,124.6633 L702.4602,124.6633 C694.138445,124.6633 687.3922,131.409201 687.3922,139.7313 C687.3922,148.052727 694.138773,154.7993 702.4602,154.7993 L724.1132,154.7993 C732.435299,154.7993 739.1812,148.053055 739.1812,139.7313 C739.1812,131.408873 732.435627,124.6633 724.1132,124.6633 Z M702.4602,127.6633 L724.1132,127.6633 C730.778773,127.6633 736.1812,133.065727 736.1812,139.7313 C736.1812,146.396235 730.77841,151.7993 724.1132,151.7993 L702.4602,151.7993 C695.795627,151.7993 690.3922,146.395873 690.3922,139.7313 C690.3922,133.06609 695.795265,127.6633 702.4602,127.6633 Z" id="Stroke-52" fill="#1940aa" fill-rule="nonzero"/><path d="M685.1327,261.5434 L590.0947,261.5434 C582.6017,261.5434 576.5267,255.4694 576.5267,247.9764 C576.5267,240.4814 582.6017,234.4074 590.0947,234.4074 L685.1327,234.4074 C692.6257,234.4074 698.7007,240.4814 698.7007,247.9764 C698.7007,255.4694 692.6257,261.5434 685.1327,261.5434" id="Fill-53" fill="#1940aa"/><path d="M685.1327,232.9074 L590.0947,232.9074 C581.772773,232.9074 575.0267,239.653473 575.0267,247.9764 C575.0267,256.297671 581.773116,263.0434 590.0947,263.0434 L685.1327,263.0434 C693.454284,263.0434 700.2007,256.297671 700.2007,247.9764 C700.2007,239.653473 693.454627,232.9074 685.1327,232.9074 Z M590.0947,235.9074 L685.1327,235.9074 C691.797773,235.9074 697.2007,241.310327 697.2007,247.9764 C697.2007,254.640748 691.797498,260.0434 685.1327,260.0434 L590.0947,260.0434 C583.429902,260.0434 578.0267,254.640748 578.0267,247.9764 C578.0267,241.310327 583.429627,235.9074 590.0947,235.9074 Z" id="Stroke-54" fill="#1940aa" fill-rule="nonzero"/><path d="M761.6503,178.7853 L676.5723,178.7853 C668.249873,178.7853 661.5043,185.530873 661.5043,193.8533 C661.5043,202.175727 668.249873,208.9213 676.5723,208.9213 L761.6503,208.9213 C769.972055,208.9213 776.7183,202.175399 776.7183,193.8533 C776.7183,185.531201 769.972055,178.7853 761.6503,178.7853 Z M676.5723,181.7853 L761.6503,181.7853 C768.315235,181.7853 773.7183,187.18809 773.7183,193.8533 C773.7183,200.51851 768.315235,205.9213 761.6503,205.9213 L676.5723,205.9213 C669.906727,205.9213 664.5043,200.518873 664.5043,193.8533 C664.5043,187.187727 669.906727,181.7853 676.5723,181.7853 Z" id="Stroke-55" fill="#1940aa" fill-rule="nonzero"/><path d="M627.8954,207.4213 L587.8954,207.4213 C580.4024,207.4213 574.3274,201.3473 574.3274,193.8533 C574.3274,186.3593 580.4024,180.2853 587.8954,180.2853 L627.8954,180.2853 C635.3884,180.2853 641.4624,186.3593 641.4624,193.8533 C641.4624,201.3473 635.3884,207.4213 627.8954,207.4213" id="Fill-56" fill="#1940aa"/><path d="M627.8954,178.7853 L587.8954,178.7853 C579.573645,178.7853 572.8274,185.531201 572.8274,193.8533 C572.8274,202.175399 579.573645,208.9213 587.8954,208.9213 L627.8954,208.9213 C636.216999,208.9213 642.9624,202.175555 642.9624,193.8533 C642.9624,185.531045 636.216999,178.7853 627.8954,178.7853 Z M587.8954,181.7853 L627.8954,181.7853 C634.56011,181.7853 639.9624,187.187865 639.9624,193.8533 C639.9624,200.518735 634.56011,205.9213 627.8954,205.9213 L587.8954,205.9213 C581.230465,205.9213 575.8274,200.51851 575.8274,193.8533 C575.8274,187.18809 581.230465,181.7853 587.8954,181.7853 Z" id="Stroke-57" fill="#1940aa" fill-rule="nonzero"/><path d="M409.468404,30.9395033 C409.992524,29.4486797 412.132818,29.6914148 412.363994,31.1899421 L412.379966,31.3340936 L414.05,55.637 L419.500564,43.4717994 C419.886174,42.6109465 420.951493,42.3247851 421.712154,42.8438267 L421.823845,42.9277508 L426.734,46.977 L435.517,46.977 L441.455708,32.85272 C442.0201,31.5101038 443.943065,31.6918392 444.28902,33.0487534 L444.319062,33.1933016 L447.938,55.454 L453.092457,45.8714759 C453.461785,45.184801 454.289214,44.9022813 454.993546,45.1985758 L455.124024,45.2609566 C455.810699,45.6302852 456.093219,46.4577139 455.796924,47.1620462 L455.734543,47.2925241 L448.487543,60.7665241 C447.831346,61.9865612 446.040737,61.7306144 445.71437,60.4344745 L445.685938,60.2966984 L442.196,38.833 L437.897292,49.05928 C437.681294,49.573111 437.200333,49.9211456 436.652686,49.971649 L436.5145,49.978 L426.1965,49.978 C425.897993,49.978 425.607459,49.8889708 425.361343,49.7240016 L425.242155,49.6352492 L421.433,46.494 L414.335436,62.3412006 C413.71697,63.72189 411.708216,63.410743 411.485868,61.9734917 L411.470034,61.8309064 L409.886,38.795 L406.307596,48.9754967 C406.112685,49.5299085 405.614317,49.9149948 405.038057,49.9709583 L404.8925,49.978 L393.0575,49.978 C392.229073,49.978 391.5575,49.3064271 391.5575,48.478 C391.5575,47.6983039 392.152388,47.0575513 392.91304,46.9848666 L393.0575,46.978 L403.83,46.977 L409.468404,30.9395033 Z" id="Stroke-58" fill="#1940aa" fill-rule="nonzero"/><path d="M600.911262,30.4468545 C601.339247,28.9412611 603.46327,29.0320208 603.810118,30.4923588 L603.838019,30.6379497 L606.823,50.86 L607.721114,48.0250761 C607.904468,47.4461848 608.416445,47.0395413 609.012234,46.9844029 L609.1511,46.978 L617.0201,46.978 C617.848527,46.978 618.5201,47.6495729 618.5201,48.478 C618.5201,49.2576961 617.925212,49.8984487 617.16456,49.9711334 L617.0201,49.978 L610.249,49.977 L607.719086,57.9669239 C607.254102,59.4349871 605.177772,59.3168992 604.833691,57.8810208 L604.805181,57.7330503 L601.889,37.977 L598.787938,48.8881455 C598.617706,49.4869967 598.097646,49.9134172 597.487407,49.971279 L597.3451,49.978 L593.594,49.977 L590.897798,57.9923047 C590.444011,59.3411276 588.571246,59.343138 588.08031,58.0654496 L588.033125,57.9236606 L583.652,42.491 L582.133762,48.8277212 C581.982808,49.4573417 581.447278,49.9136912 580.812532,49.9717395 L580.6751,49.978 L574.0101,49.978 C573.393652,49.978 572.84529,49.601735 572.618699,49.0384719 L572.572236,48.9052548 L569.289,37.857 L566.451025,57.7261242 C566.260685,59.0585573 564.568068,59.4664563 563.779945,58.4331483 L563.699074,58.3168983 L557.973074,49.2808983 C557.529646,48.5811393 557.737443,47.6544028 558.437202,47.2109743 C559.095798,46.7936298 559.955455,46.9531493 560.424001,47.5567541 L560.507126,47.6751017 L564.056,53.276 L567.289175,30.6448758 C567.50971,29.1010715 569.615613,28.8983309 570.163884,30.2900743 L570.211964,30.4297452 L575.128,46.977 L579.492,46.977 L582.071438,36.2202788 C582.419405,34.7689332 584.412036,34.6796327 584.925376,36.0169089 L584.973075,36.1603394 L589.597,52.448 L591.094402,47.9996953 C591.285118,47.432817 591.79212,47.0377611 592.379285,46.9842168 L592.5161,46.978 L596.212,46.977 L600.911262,30.4468545 Z" id="Stroke-59" fill="#1940aa" fill-rule="nonzero"/><path d="M519.1307,225.2436 C519.1307,235.0866 511.1517,243.0656 501.3087,243.0656 C491.4657,243.0656 483.4857,235.0866 483.4857,225.2436 C483.4857,215.4006 491.4657,207.4216 501.3087,207.4216 C511.1517,207.4216 519.1307,215.4006 519.1307,225.2436" id="Fill-60" fill="#1940aa"/><path d="M511.8368,221.4389 C511.8368,225.1519 508.8258,228.1629 505.1128,228.1629 C501.3998,228.1629 498.3898,225.1519 498.3898,221.4389 C498.3898,217.7259 501.3998,214.7149 505.1128,214.7149 C508.8258,214.7149 511.8368,217.7259 511.8368,221.4389" id="Fill-61" fill="#6a8ed6"/><polygon id="Fill-62" fill="#1940aa" points="637.6132 403.4067 607.9442 433.0757 578.2752 403.4067 607.9442 373.7367"/><path d="M606.883522,372.676058 L577.214522,402.346058 C576.628752,402.931847 576.62876,403.881581 577.21454,404.46736 L606.88354,434.13636 C607.469326,434.722147 608.419074,434.722147 609.00486,434.13636 L638.67386,404.46736 C639.25964,403.881581 639.259648,402.931847 638.673878,402.346058 L609.004878,372.676058 C608.419088,372.090247 607.469312,372.090247 606.883522,372.676058 Z M607.944,375.858 L635.492,403.406 L607.944,430.955 L580.395,403.406 L607.944,375.858 Z" id="Stroke-63" fill="#1940aa" fill-rule="nonzero"/><polygon id="Fill-64" fill="#6a8ed6" points="667.2831 403.4067 637.6131 433.0757 607.9441 403.4067 637.6131 373.7367"/><path d="M636.552422,372.676058 L606.883422,402.346058 C606.297652,402.931847 606.29766,403.881581 606.88344,404.46736 L636.55244,434.13636 C637.138219,434.72214 638.087953,434.722148 638.673742,434.136378 L668.343742,404.467378 C668.929546,403.881595 668.929554,402.931833 668.34376,402.34604 L638.67376,372.67604 C638.087967,372.090246 637.138205,372.090254 636.552422,372.676058 Z M637.613,375.858 L665.161,403.406 L637.613,430.955 L610.064,403.406 L637.613,375.858 Z" id="Stroke-65" fill="#1940aa" fill-rule="nonzero"/><polygon id="Fill-66" fill="#6a8ed6" points="696.952 403.4067 667.283 433.0757 637.613 403.4067 667.283 373.7367"/><path d="M666.22234,372.67604 L636.55234,402.34604 C635.966546,402.931833 635.966554,403.881595 636.552358,404.467378 L666.222358,434.136378 C666.808147,434.722148 667.757881,434.72214 668.34366,434.13636 L698.01266,404.46736 C698.59844,403.881581 698.598448,402.931847 698.012678,402.346058 L668.343678,372.676058 C667.757895,372.090254 666.808133,372.090246 666.22234,372.67604 Z M667.282,375.858 L694.831,403.406 L667.282,430.955 L639.734,403.406 L667.282,375.858 Z" id="Stroke-67" fill="#1940aa" fill-rule="nonzero"/><path d="M525.7821,265.5004 C525.7821,271.6264 520.8161,276.5924 514.6901,276.5924 C508.5641,276.5924 503.5981,271.6264 503.5981,265.5004 C503.5981,259.3744 508.5641,254.4084 514.6901,254.4084 C520.8161,254.4084 525.7821,259.3744 525.7821,265.5004" id="Fill-68" fill="#1940aa"/><path d="M522.1298,263.3959 C522.1298,265.0519 520.7868,266.3949 519.1308,266.3949 C517.4738,266.3949 516.1308,265.0519 516.1308,263.3959 C516.1308,261.7389 517.4738,260.3959 519.1308,260.3959 C520.7868,260.3959 522.1298,261.7389 522.1298,263.3959" id="Fill-69" fill="#6a8ed6"/><path d="M473.4726,244.4701 C473.4726,248.3871 470.2976,251.5631 466.3796,251.5631 C462.4626,251.5631 459.2876,248.3871 459.2876,244.4701 C459.2876,240.5531 462.4626,237.3771 466.3796,237.3771 C470.2976,237.3771 473.4726,240.5531 473.4726,244.4701" id="Fill-70" fill="#1940aa"/><path d="M465.369,242.6957 C465.369,243.6757 464.574,244.4697 463.594,244.4697 C462.614,244.4697 461.819,243.6757 461.819,242.6957 C461.819,241.7157 462.614,240.9217 463.594,240.9217 C464.574,240.9217 465.369,241.7157 465.369,242.6957" id="Fill-71" fill="#6a8ed6"/><path d="M50.5674183,320.47386 C51.1451302,319.880109 52.0947887,319.867106 52.6885399,320.444818 C53.2822911,321.02253 53.2952935,321.972189 52.7175817,322.56594 C28.6123813,347.340386 15.9543003,382.461296 20.7608893,414.491288 C23.2999923,431.410755 31.5050029,447.024218 43.2031138,458.782016 L43.296,458.874 L43.3253587,458.663124 C44.6247002,449.749274 47.2642527,441.083969 51.3464876,432.892021 L51.9121079,431.777893 C62.2147076,411.854879 79.7556765,396.578181 99.8822747,390.854085 C111.181254,387.641527 124.00036,388.242237 134.283845,392.646936 C145.788878,397.574857 153.230762,406.745516 154.630107,419.199301 C156.702541,437.631336 148.635901,455.080415 133.536877,467.48902 C119.093996,479.358395 99.9185885,485.103739 82.3689575,482.446998 C68.9692917,480.418276 56.5549824,474.38636 46.2209294,465.645373 L45.632,465.141 L45.5515959,466.323309 C43.8144268,494.217287 54.9791723,524.048397 75.908464,548.737165 L76.8114028,549.792086 C107.796661,585.645229 157.589752,602.605062 207.646093,596.131291 C246.587496,591.09461 283.539586,571.148449 310.316191,541.134327 C310.867688,540.51615 311.815896,540.462095 312.434073,541.013591 C313.05225,541.565088 313.106305,542.513296 312.554809,543.131473 C285.304509,573.676563 247.698006,593.975966 208.030892,599.106511 C157.013379,605.704589 106.214067,588.402031 74.541578,551.753692 C51.8888022,525.541053 40.0433472,493.401532 42.7489246,463.548521 L42.839,462.616 L42.5349775,462.328929 C29.853254,450.200345 20.8708227,433.808544 17.9527888,415.948973 L17.7941097,414.936505 C12.8423585,381.939187 25.8333241,345.894661 50.5674183,320.47386 Z M133.102655,395.404614 C123.469268,391.27837 111.356028,390.710737 100.702834,393.739684 C81.4075448,399.227353 64.5135089,413.940627 54.5769009,433.15589 C50.1314832,441.752641 47.3554875,450.921873 46.1224681,460.378258 L45.99,461.449 L46.6725243,462.064479 C56.6473402,470.94324 68.7646439,477.146759 81.8795578,479.331591 L82.8180185,479.480798 C99.501399,482.006402 117.828647,476.515184 131.632123,465.17128 C145.983761,453.376889 153.601322,436.899223 151.64888,419.534391 C150.375887,408.205109 143.656911,399.925292 133.102655,395.404614 Z" id="Stroke-72" fill="#1940aa" fill-rule="nonzero"/><path d="M646.4654,508.3698 C661.719076,508.3698 675.458352,516.914878 682.344828,530.230863 C685.277616,535.902973 686.8284,542.204603 686.8284,548.7318 C686.8284,552.225736 686.383799,555.663379 685.514547,558.985501 C685.304844,559.786947 684.485146,560.26665 683.683699,560.056947 C682.882253,559.847244 682.40255,559.027546 682.612253,558.226099 C683.416802,555.151259 683.8284,551.968799 683.8284,548.7318 C683.8284,542.686884 682.393801,536.857376 679.680029,531.608847 C673.303791,519.279482 660.586142,511.3698 646.4654,511.3698 C626.033053,511.3698 609.430416,527.76549 609.100407,548.113982 L609.096295,548.96555 L609.10164,549.162158 C609.141759,549.989613 608.503497,550.692921 607.676042,550.73304 C606.848587,550.773159 606.145279,550.134897 606.10516,549.307442 L606.099565,549.159367 L606.0954,548.943962 L606.0954,548.7318 C606.0954,526.441428 624.169918,508.3698 646.4654,508.3698 Z" id="Stroke-73" fill="#1940aa" fill-rule="nonzero"/><path d="M685.5096,529.0654 C702.089167,529.0654 715.5286,542.507112 715.5286,559.0834 C715.5286,575.6607 702.089155,589.1034 685.5096,589.1034 C684.681173,589.1034 684.0096,588.431827 684.0096,587.6034 C684.0096,586.774973 684.681173,586.1034 685.5096,586.1034 C700.432138,586.1034 712.5286,574.004008 712.5286,559.0834 C712.5286,544.163852 700.432199,532.0654 685.5096,532.0654 C684.084566,532.0654 682.664181,532.178633 681.24509,532.401273 C680.426674,532.529674 679.659128,531.970306 679.530727,531.15189 C679.402326,530.333474 679.961694,529.565928 680.78011,529.437527 C682.351332,529.191018 683.927082,529.0654 685.5096,529.0654 Z" id="Stroke-74" fill="#1940aa" fill-rule="nonzero"/><path d="M607.50235,547.738208 C608.328895,547.682399 609.044184,548.307205 609.099992,549.13375 C609.155801,549.960295 608.530995,550.675584 607.70445,550.731392 C598.44764,551.356415 591.2164,559.063154 591.2164,568.3898 C591.2164,578.175875 599.14133,586.1028 608.9214,586.1028 C609.749827,586.1028 610.4214,586.774373 610.4214,587.6028 C610.4214,588.431227 609.749827,589.1028 608.9214,589.1028 C597.484306,589.1028 588.2164,579.83256 588.2164,568.3898 C588.2164,557.482263 596.673181,548.469396 607.50235,547.738208 Z" id="Stroke-75" fill="#1940aa" fill-rule="nonzero"/><path d="M628.4569,577.1147 C629.236596,577.1147 629.877349,577.709588 629.950033,578.47024 L629.9569,578.6147 L629.9569,601.1367 C629.9569,601.965127 629.285327,602.6367 628.4569,602.6367 C627.677204,602.6367 627.036451,602.041812 626.963767,601.28116 L626.9569,601.1367 L626.9569,578.6147 C626.9569,577.786273 627.628473,577.1147 628.4569,577.1147 Z" id="Stroke-76" fill="#1940aa" fill-rule="nonzero"/><path d="M647.2772,577.1147 C648.056896,577.1147 648.697649,577.709588 648.770333,578.47024 L648.7772,578.6147 L648.7772,615.3297 C648.7772,616.158127 648.105627,616.8297 647.2772,616.8297 C646.497504,616.8297 645.856751,616.234812 645.784067,615.47416 L645.7772,615.3297 L645.7772,578.6147 C645.7772,577.786273 646.448773,577.1147 647.2772,577.1147 Z" id="Stroke-77" fill="#1940aa" fill-rule="nonzero"/><path d="M666.0975,577.1147 C666.877196,577.1147 667.517949,577.709588 667.590633,578.47024 L667.5975,578.6147 L667.5975,601.1367 C667.5975,601.965127 666.925927,602.6367 666.0975,602.6367 C665.317804,602.6367 664.677051,602.041812 664.604367,601.28116 L664.5975,601.1367 L664.5975,578.6147 C664.5975,577.786273 665.269073,577.1147 666.0975,577.1147 Z" id="Stroke-78" fill="#1940aa" fill-rule="nonzero"/><path d="M196.6034,25.4671 C199.068017,25.4671 201.470986,25.8305113 203.752697,26.543344 C204.543434,26.7903793 204.984191,27.63166 204.737156,28.4223971 C204.490121,29.2131341 203.64884,29.6538914 202.858103,29.406856 C200.867244,28.7848889 198.765942,28.4671 196.6034,28.4671 C184.893028,28.4671 175.4014,37.9613269 175.4014,49.6791 C175.4014,61.3897843 184.896938,70.8911 196.6034,70.8911 C197.431827,70.8911 198.1034,71.5626729 198.1034,72.3911 C198.1034,73.2195271 197.431827,73.8911 196.6034,73.8911 C183.239675,73.8911 172.4014,63.0462302 172.4014,49.6791 C172.4014,36.3046565 183.23599,25.4671 196.6034,25.4671 Z" id="Stroke-79" fill="#1940aa" fill-rule="nonzero"/><path d="M258.627641,34.5000282 C258.883002,33.7119404 259.728884,33.28008 260.516972,33.5354409 C268.975544,36.2762379 274.8156,44.1830573 274.8156,53.2134 C274.8156,64.6338271 265.558027,73.8914 254.1376,73.8914 C248.892694,73.8914 243.950981,71.9309715 240.164954,68.4600774 C239.554306,67.9002564 239.513102,66.9514031 240.072923,66.3407544 C240.632744,65.7301056 241.581597,65.6889016 242.192246,66.2487226 C245.430137,69.2171064 249.650582,70.8914 254.1376,70.8914 C263.901173,70.8914 271.8156,62.9769729 271.8156,53.2134 C271.8156,45.4927493 266.822049,38.7320089 259.592228,36.3893591 C258.80414,36.1339982 258.37228,35.2881159 258.627641,34.5000282 Z" id="Stroke-80" fill="#1940aa" fill-rule="nonzero"/><path d="M231.9046,-0.5249 C248.54919,-0.5249 262.0536,12.9798357 262.0536,29.6251 C262.0536,31.5213177 261.875852,33.4069831 261.528392,35.2412727 C261.374209,36.0552255 260.58938,36.5900747 259.775427,36.4358919 C258.961475,36.2817091 258.426625,35.4968801 258.580808,34.6829273 C258.893472,33.0323327 259.0536,31.3335892 259.0536,29.6251 C259.0536,14.6366737 246.892319,2.4751 231.9046,2.4751 C217.49504,2.4751 205.616671,13.7380792 204.803186,28.0601619 C204.756208,28.8872559 204.047632,29.5196646 203.220538,29.4726862 C202.393444,29.4257078 201.761035,28.7171322 201.808014,27.8900381 C202.711574,11.9820884 215.901924,-0.5249 231.9046,-0.5249 Z" id="Stroke-81" fill="#1940aa" fill-rule="nonzero"/><path d="M200.5133,70.8881 C201.341727,70.8881 202.0133,71.5596729 202.0133,72.3881 C202.0133,73.1677961 201.418412,73.8085487 200.65776,73.8812334 L200.5133,73.8881 L196.6073,73.8881 C195.778873,73.8881 195.1073,73.2165271 195.1073,72.3881 C195.1073,71.6084039 195.702188,70.9676513 196.46284,70.8949666 L196.6073,70.8881 L200.5133,70.8881 Z" id="Stroke-82" fill="#1940aa" fill-rule="nonzero"/><path d="M212.539,54.8032 C213.318696,54.8032 213.959449,55.3980881 214.032133,56.15874 L214.039,56.3032 L214.039,93.9622 C214.039,94.7906271 213.367427,95.4622 212.539,95.4622 C211.759304,95.4622 211.118551,94.8673119 211.045867,94.10666 L211.039,93.9622 L211.039,56.3032 C211.039,55.4747729 211.710573,54.8032 212.539,54.8032 Z" id="Stroke-83" fill="#1940aa" fill-rule="nonzero"/><path d="M228.8954,41.5629 C229.675096,41.5629 230.315849,42.1577881 230.388533,42.91844 L230.3954,43.0629 L230.3954,80.7219 C230.3954,81.5503271 229.723827,82.2219 228.8954,82.2219 C228.115704,82.2219 227.474951,81.6270119 227.402267,80.86636 L227.3954,80.7219 L227.3954,43.0629 C227.3954,42.2344729 228.066973,41.5629 228.8954,41.5629 Z" id="Stroke-84" fill="#1940aa" fill-rule="nonzero"/><path d="M486.164395,268.567408 C486.417896,267.830073 487.188791,267.417547 487.931748,267.596121 L488.070592,267.636595 L499.559592,271.586595 C500.343011,271.85594 500.75975,272.709373 500.490405,273.492792 C500.236904,274.230127 499.466009,274.642653 498.723052,274.464079 L498.584208,274.423605 L487.095208,270.473605 C486.311789,270.20426 485.89505,269.350827 486.164395,268.567408 Z" id="Stroke-85" fill="#1940aa" fill-rule="nonzero"/><path d="M480.419333,276.533097 C480.672891,275.795782 481.443818,275.383316 482.186762,275.561948 L482.325603,275.602433 L493.814603,279.553433 C494.598,279.822839 495.014673,280.676305 494.745267,281.459703 C494.491709,282.197018 493.720782,282.609484 492.977838,282.430852 L492.838997,282.390367 L481.349997,278.439367 C480.5666,278.169961 480.149927,277.316495 480.419333,276.533097 Z" id="Stroke-86" fill="#1940aa" fill-rule="nonzero"/></g></g></svg>