<?xml version="1.0" standalone="no"?><svg xmlns="http://www.w3.org/2000/svg" viewBox="0 0 1440 320"><path fill="#2958b6" fill-opacity="1" d="M0,192L34.3,202.7C68.6,213,137,235,206,240C274.3,245,343,235,411,202.7C480,171,549,117,617,128C685.7,139,754,213,823,229.3C891.4,245,960,203,1029,202.7C1097.1,203,1166,245,1234,261.3C1302.9,277,1371,267,1406,261.3L1440,256L1440,320L1405.7,320C1371.4,320,1303,320,1234,320C1165.7,320,1097,320,1029,320C960,320,891,320,823,320C754.3,320,686,320,617,320C548.6,320,480,320,411,320C342.9,320,274,320,206,320C137.1,320,69,320,34,320L0,320Z"></path></svg>